<svg width="140" height="104" viewBox="0 0 140 104" fill="none" xmlns="http://www.w3.org/2000/svg">
<g clip-path="url(#clip0_21931_145273)">
<path fill-rule="evenodd" clip-rule="evenodd" d="M124.44 51.3633C124.977 51.3633 125.464 51.5811 125.814 51.9336C126.167 52.2836 126.384 52.7711 126.384 53.3077V103.215H99.1621V53.3077C99.1621 52.7711 99.3799 52.2836 99.7325 51.9336C100.082 51.5811 100.57 51.3633 101.107 51.3633H124.44Z" fill="#0D2535" stroke="#0D2535" stroke-width="1.2963"/>
<path fill-rule="evenodd" clip-rule="evenodd" d="M121.852 51.3633C122.389 51.3633 122.876 51.5811 123.226 51.9336C123.579 52.2836 123.796 52.7711 123.796 53.3077V103.215H96.5742V53.3077C96.5742 52.7711 96.792 52.2836 97.1446 51.9336C97.4946 51.5811 97.982 51.3633 98.5187 51.3633H121.852Z" fill="white" stroke="#0D2535" stroke-width="1.2963"/>
<path d="M85.5551 0.800781C86.0918 0.800781 86.5792 1.01856 86.9292 1.37115C87.2818 1.72115 87.4996 2.20856 87.4996 2.74523V103.208H60.2773V2.74523C60.2773 2.20856 60.4951 1.72115 60.8477 1.37115C61.1977 1.01856 61.6851 0.800781 62.2218 0.800781H85.5551Z" fill="#FF8A0A" stroke="#FF8A0A" stroke-width="1.2963"/>
<path d="M82.9668 6.62109V22.1766M82.9668 28.6581V36.4359M82.9668 42.9174V45.51" stroke="white" stroke-width="1.94444"/>
<path fill-rule="evenodd" clip-rule="evenodd" d="M49.2622 72.0898C49.7988 72.0898 50.2862 72.3076 50.6362 72.6602C50.9888 73.0102 51.2066 73.4976 51.2066 74.0343V103.201H23.9844V74.0343C23.9844 73.4976 24.2022 73.0102 24.5547 72.6602C24.9047 72.3076 25.3922 72.0898 25.9288 72.0898H49.2622Z" fill="#0D2535" stroke="#0D2535" stroke-width="1.2963"/>
<path fill-rule="evenodd" clip-rule="evenodd" d="M46.6665 72.0898C47.2031 72.0898 47.6905 72.3076 48.0405 72.6602C48.3931 73.0102 48.6109 73.4976 48.6109 74.0343V103.201H21.3887V74.0343C21.3887 73.4976 21.6065 73.0102 21.959 72.6602C22.309 72.3076 22.7964 72.0898 23.3331 72.0898H46.6665Z" fill="white" stroke="#0D2535" stroke-width="1.2963"/>
<path d="M15.5536 103.211H129.628M6.47953 103.211H11.6647M-0.00195312 103.211H2.59064M133.517 103.211H139.998" stroke="#0D2535" stroke-width="1.2963"/>
</g>
<defs>
<clipPath id="clip0_21931_145273">
<rect width="140" height="103.704" fill="white" transform="translate(0 0.148438)"/>
</clipPath>
</defs>
</svg>
