<svg width="230" height="125" viewBox="0 0 230 125" fill="none" xmlns="http://www.w3.org/2000/svg">
<rect x="46.4736" y="0.800781" width="136.745" height="123.399" rx="6" fill="#FFF9EC"/>
<path d="M61.0093 20.7891H59.0377V14.9709H61.0491C61.6267 14.9709 62.123 15.0874 62.5377 15.3203C62.9544 15.5514 63.2745 15.8838 63.498 16.3175C63.7214 16.7512 63.8332 17.2701 63.8332 17.8743C63.8332 18.4804 63.7205 19.0012 63.4951 19.4368C63.2716 19.8724 62.9487 20.2067 62.5264 20.4396C62.1059 20.6726 61.6002 20.7891 61.0093 20.7891ZM60.0917 19.8771H60.9582C61.3635 19.8771 61.7016 19.8033 61.9724 19.6555C62.2432 19.5059 62.4468 19.2834 62.5832 18.9879C62.7195 18.6906 62.7877 18.3194 62.7877 17.8743C62.7877 17.4292 62.7195 17.0599 62.5832 16.7663C62.4468 16.4709 62.2451 16.2502 61.9781 16.1044C61.7129 15.9567 61.3834 15.8828 60.9894 15.8828H60.0917V19.8771ZM66.0448 20.8771C65.7683 20.8771 65.5193 20.8279 65.2977 20.7294C65.078 20.629 64.9037 20.4813 64.7749 20.2862C64.6481 20.0911 64.5846 19.8506 64.5846 19.5646C64.5846 19.3184 64.6301 19.1148 64.721 18.9538C64.8119 18.7929 64.9359 18.6641 65.0931 18.5675C65.2503 18.4709 65.4274 18.398 65.6244 18.3487C65.8232 18.2976 66.0287 18.2607 66.2409 18.2379C66.4965 18.2114 66.7039 18.1877 66.863 18.1669C67.0221 18.1442 67.1376 18.1101 67.2096 18.0646C67.2835 18.0173 67.3204 17.9444 67.3204 17.8459V17.8288C67.3204 17.6148 67.257 17.4491 67.1301 17.3317C67.0032 17.2143 66.8204 17.1555 66.5818 17.1555C66.3299 17.1555 66.1301 17.2105 65.9823 17.3203C65.8365 17.4302 65.738 17.5599 65.6869 17.7095L64.7267 17.5732C64.8024 17.308 64.9274 17.0864 65.1017 16.9084C65.2759 16.7285 65.489 16.594 65.7409 16.505C65.9927 16.4141 66.2712 16.3686 66.5761 16.3686C66.7863 16.3686 66.9956 16.3932 67.2039 16.4425C67.4123 16.4917 67.6026 16.5732 67.7749 16.6868C67.9473 16.7985 68.0856 16.951 68.1897 17.1442C68.2958 17.3374 68.3488 17.5788 68.3488 17.8686V20.7891H67.3602V20.1896H67.3261C67.2636 20.3108 67.1755 20.4245 67.0619 20.5305C66.9501 20.6347 66.809 20.719 66.6386 20.7834C66.47 20.8459 66.2721 20.8771 66.0448 20.8771ZM66.3119 20.1214C66.5183 20.1214 66.6973 20.0807 66.8488 19.9993C67.0003 19.916 67.1168 19.8061 67.1982 19.6697C67.2816 19.5334 67.3232 19.3847 67.3232 19.2237V18.7095C67.291 18.736 67.2361 18.7607 67.1585 18.7834C67.0827 18.8061 66.9975 18.826 66.9028 18.843C66.8081 18.8601 66.7143 18.8752 66.6215 18.8885C66.5287 18.9018 66.4482 18.9131 66.3801 18.9226C66.2267 18.9434 66.0893 18.9775 65.9681 19.0249C65.8469 19.0722 65.7513 19.1385 65.6812 19.2237C65.6111 19.3071 65.5761 19.415 65.5761 19.5476C65.5761 19.737 65.6452 19.88 65.7835 19.9766C65.9217 20.0732 66.0979 20.1214 66.3119 20.1214ZM72.8318 17.5788L71.8943 17.6811C71.8677 17.5864 71.8213 17.4974 71.7551 17.4141C71.6907 17.3307 71.6035 17.2635 71.4937 17.2124C71.3838 17.1612 71.2494 17.1357 71.0903 17.1357C70.8763 17.1357 70.6963 17.1821 70.5505 17.2749C70.4066 17.3677 70.3356 17.4879 70.3374 17.6357C70.3356 17.7625 70.382 17.8658 70.4767 17.9453C70.5732 18.0249 70.7323 18.0902 70.9539 18.1413L71.6982 18.3004C72.1111 18.3894 72.4179 18.5305 72.6187 18.7237C72.8213 18.9169 72.9236 19.1697 72.9255 19.4822C72.9236 19.7569 72.8431 19.9993 72.684 20.2095C72.5268 20.4179 72.3081 20.5807 72.0278 20.6982C71.7475 20.8156 71.4255 20.8743 71.0619 20.8743C70.5278 20.8743 70.0979 20.7625 69.7721 20.5391C69.4463 20.3137 69.2522 20.0002 69.1897 19.5987L70.1926 19.5021C70.238 19.6991 70.3346 19.8478 70.4823 19.9482C70.6301 20.0485 70.8223 20.0987 71.059 20.0987C71.3034 20.0987 71.4994 20.0485 71.6471 19.9482C71.7967 19.8478 71.8715 19.7237 71.8715 19.576C71.8715 19.451 71.8232 19.3478 71.7267 19.2663C71.632 19.1849 71.4842 19.1224 71.2835 19.0788L70.5392 18.9226C70.1206 18.8355 69.8109 18.6887 69.6102 18.4822C69.4094 18.2739 69.31 18.0107 69.3119 17.6925C69.31 17.4235 69.3829 17.1906 69.5306 16.9936C69.6802 16.7947 69.8876 16.6413 70.1528 16.5334C70.4198 16.4235 70.7276 16.3686 71.0761 16.3686C71.5874 16.3686 71.9899 16.4775 72.2835 16.6953C72.5789 16.9131 72.7617 17.2076 72.8318 17.5788ZM74.8019 18.2322V20.7891H73.7735V14.9709H74.7792V17.1669H74.8303C74.9326 16.9207 75.0908 16.7266 75.3048 16.5845C75.5207 16.4406 75.7953 16.3686 76.1286 16.3686C76.4317 16.3686 76.6959 16.4321 76.9213 16.5589C77.1466 16.6858 77.3209 16.8714 77.444 17.1158C77.569 17.3601 77.6315 17.6584 77.6315 18.0107V20.7891H76.6031V18.1697C76.6031 17.8762 76.5273 17.648 76.3758 17.4851C76.2262 17.3203 76.016 17.2379 75.7451 17.2379C75.5633 17.2379 75.4004 17.2777 75.2565 17.3572C75.1144 17.4349 75.0027 17.5476 74.9213 17.6953C74.8417 17.843 74.8019 18.022 74.8019 18.2322ZM78.7252 20.7891V14.9709H79.7536V17.147H79.7963C79.8493 17.041 79.9241 16.9283 80.0207 16.8089C80.1173 16.6877 80.248 16.5845 80.4127 16.4993C80.5775 16.4122 80.7877 16.3686 81.0434 16.3686C81.3805 16.3686 81.6845 16.4548 81.9553 16.6271C82.2281 16.7976 82.444 17.0504 82.6031 17.3857C82.7641 17.719 82.8445 18.1281 82.8445 18.6129C82.8445 19.0921 82.766 19.4993 82.6088 19.8345C82.4516 20.1697 82.2375 20.4254 81.9667 20.6016C81.6959 20.7777 81.3891 20.8658 81.0463 20.8658C80.7963 20.8658 80.5889 20.8241 80.4241 20.7408C80.2593 20.6574 80.1267 20.5571 80.0264 20.4396C79.9279 20.3203 79.8512 20.2076 79.7963 20.1016H79.7366V20.7891H78.7252ZM79.7338 18.6072C79.7338 18.8894 79.7735 19.1366 79.8531 19.3487C79.9345 19.5608 80.051 19.7266 80.2025 19.8459C80.3559 19.9633 80.5415 20.022 80.7593 20.022C80.9866 20.022 81.1769 19.9614 81.3303 19.8402C81.4838 19.7171 81.5993 19.5495 81.6769 19.3374C81.7565 19.1233 81.7963 18.88 81.7963 18.6072C81.7963 18.3364 81.7574 18.0959 81.6798 17.8857C81.6021 17.6754 81.4866 17.5107 81.3332 17.3913C81.1798 17.272 80.9885 17.2124 80.7593 17.2124C80.5396 17.2124 80.3531 17.2701 80.1997 17.3857C80.0463 17.5012 79.9298 17.6631 79.8502 17.8714C79.7726 18.0798 79.7338 18.325 79.7338 18.6072ZM85.6222 20.8743C85.1961 20.8743 84.8268 20.7805 84.5143 20.593C84.2018 20.4055 83.9594 20.1432 83.787 19.8061C83.6166 19.469 83.5313 19.075 83.5313 18.6243C83.5313 18.1735 83.6166 17.7786 83.787 17.4396C83.9594 17.1006 84.2018 16.8374 84.5143 16.6499C84.8268 16.4624 85.1961 16.3686 85.6222 16.3686C86.0484 16.3686 86.4177 16.4624 86.7302 16.6499C87.0427 16.8374 87.2842 17.1006 87.4546 17.4396C87.627 17.7786 87.7132 18.1735 87.7132 18.6243C87.7132 19.075 87.627 19.469 87.4546 19.8061C87.2842 20.1432 87.0427 20.4055 86.7302 20.593C86.4177 20.7805 86.0484 20.8743 85.6222 20.8743ZM85.6279 20.0504C85.859 20.0504 86.0522 19.987 86.2075 19.8601C86.3628 19.7313 86.4783 19.5589 86.5541 19.343C86.6317 19.1271 86.6705 18.8866 86.6705 18.6214C86.6705 18.3544 86.6317 18.1129 86.5541 17.897C86.4783 17.6792 86.3628 17.5059 86.2075 17.3771C86.0522 17.2483 85.859 17.1839 85.6279 17.1839C85.3912 17.1839 85.1942 17.2483 85.037 17.3771C84.8817 17.5059 84.7652 17.6792 84.6876 17.897C84.6118 18.1129 84.574 18.3544 84.574 18.6214C84.574 18.8866 84.6118 19.1271 84.6876 19.343C84.7652 19.5589 84.8817 19.7313 85.037 19.8601C85.1942 19.987 85.3912 20.0504 85.6279 20.0504ZM89.8417 20.8771C89.5652 20.8771 89.3161 20.8279 89.0945 20.7294C88.8749 20.629 88.7006 20.4813 88.5718 20.2862C88.4449 20.0911 88.3815 19.8506 88.3815 19.5646C88.3815 19.3184 88.4269 19.1148 88.5178 18.9538C88.6088 18.7929 88.7328 18.6641 88.89 18.5675C89.0472 18.4709 89.2243 18.398 89.4213 18.3487C89.6201 18.2976 89.8256 18.2607 90.0377 18.2379C90.2934 18.2114 90.5008 18.1877 90.6599 18.1669C90.819 18.1442 90.9345 18.1101 91.0065 18.0646C91.0803 18.0173 91.1173 17.9444 91.1173 17.8459V17.8288C91.1173 17.6148 91.0538 17.4491 90.9269 17.3317C90.8 17.2143 90.6173 17.1555 90.3786 17.1555C90.1267 17.1555 89.9269 17.2105 89.7792 17.3203C89.6334 17.4302 89.5349 17.5599 89.4838 17.7095L88.5235 17.5732C88.5993 17.308 88.7243 17.0864 88.8985 16.9084C89.0728 16.7285 89.2858 16.594 89.5377 16.505C89.7896 16.4141 90.068 16.3686 90.373 16.3686C90.5832 16.3686 90.7925 16.3932 91.0008 16.4425C91.2091 16.4917 91.3995 16.5732 91.5718 16.6868C91.7442 16.7985 91.8824 16.951 91.9866 17.1442C92.0927 17.3374 92.1457 17.5788 92.1457 17.8686V20.7891H91.157V20.1896H91.123C91.0605 20.3108 90.9724 20.4245 90.8588 20.5305C90.747 20.6347 90.6059 20.719 90.4355 20.7834C90.2669 20.8459 90.069 20.8771 89.8417 20.8771ZM90.1088 20.1214C90.3152 20.1214 90.4942 20.0807 90.6457 19.9993C90.7972 19.916 90.9137 19.8061 90.9951 19.6697C91.0785 19.5334 91.1201 19.3847 91.1201 19.2237V18.7095C91.0879 18.736 91.033 18.7607 90.9553 18.7834C90.8796 18.8061 90.7944 18.826 90.6997 18.843C90.605 18.8601 90.5112 18.8752 90.4184 18.8885C90.3256 18.9018 90.2451 18.9131 90.1769 18.9226C90.0235 18.9434 89.8862 18.9775 89.765 19.0249C89.6438 19.0722 89.5481 19.1385 89.4781 19.2237C89.408 19.3071 89.373 19.415 89.373 19.5476C89.373 19.737 89.4421 19.88 89.5803 19.9766C89.7186 20.0732 89.8947 20.1214 90.1088 20.1214ZM93.1798 20.7891V16.4254H94.1769V17.1527H94.2224C94.3019 16.9008 94.4383 16.7067 94.6315 16.5703C94.8266 16.4321 95.0491 16.3629 95.2991 16.3629C95.3559 16.3629 95.4194 16.3658 95.4894 16.3714C95.5614 16.3752 95.6211 16.3819 95.6684 16.3913V17.3374C95.6249 17.3222 95.5557 17.3089 95.461 17.2976C95.3682 17.2843 95.2783 17.2777 95.1911 17.2777C95.0036 17.2777 94.8351 17.3184 94.6855 17.3999C94.5377 17.4794 94.4213 17.5902 94.336 17.7322C94.2508 17.8743 94.2082 18.0381 94.2082 18.2237V20.7891H93.1798ZM97.7913 20.8658C97.4485 20.8658 97.1417 20.7777 96.8708 20.6016C96.6 20.4254 96.386 20.1697 96.2288 19.8345C96.0716 19.4993 95.993 19.0921 95.993 18.6129C95.993 18.1281 96.0725 17.719 96.2316 17.3857C96.3926 17.0504 96.6095 16.7976 96.8822 16.6271C97.1549 16.4548 97.4589 16.3686 97.7941 16.3686C98.0498 16.3686 98.26 16.4122 98.4248 16.4993C98.5896 16.5845 98.7203 16.6877 98.8169 16.8089C98.9134 16.9283 98.9883 17.041 99.0413 17.147H99.0839V14.9709H100.115V20.7891H99.1038V20.1016H99.0413C98.9883 20.2076 98.9115 20.3203 98.8112 20.4396C98.7108 20.5571 98.5782 20.6574 98.4134 20.7408C98.2487 20.8241 98.0413 20.8658 97.7913 20.8658ZM98.0782 20.022C98.296 20.022 98.4816 19.9633 98.635 19.8459C98.7884 19.7266 98.9049 19.5608 98.9845 19.3487C99.064 19.1366 99.1038 18.8894 99.1038 18.6072C99.1038 18.325 99.064 18.0798 98.9845 17.8714C98.9068 17.6631 98.7913 17.5012 98.6379 17.3857C98.4864 17.2701 98.2998 17.2124 98.0782 17.2124C97.849 17.2124 97.6578 17.272 97.5044 17.3913C97.3509 17.5107 97.2354 17.6754 97.1578 17.8857C97.0801 18.0959 97.0413 18.3364 97.0413 18.6072C97.0413 18.88 97.0801 19.1233 97.1578 19.3374C97.2373 19.5495 97.3538 19.7171 97.5072 19.8402C97.6625 19.9614 97.8528 20.022 98.0782 20.022Z" fill="#363F4A"/>
<path d="M62.049 43.8791V32.9789H62.7473V43.8791H62.049ZM64.063 36.4661C64.0232 36.0943 63.8558 35.8047 63.5606 35.5975C63.2682 35.3903 62.8878 35.2867 62.4194 35.2867C62.0902 35.2867 61.8077 35.3364 61.5721 35.4357C61.3365 35.5351 61.1563 35.6699 61.0314 35.8402C60.9065 36.0105 60.8426 36.205 60.8398 36.4235C60.8398 36.6052 60.8809 36.7627 60.9632 36.8962C61.0484 37.0296 61.1634 37.1431 61.3081 37.2368C61.4529 37.3276 61.6133 37.4043 61.7893 37.4667C61.9653 37.5292 62.1427 37.5817 62.3215 37.6243L63.139 37.8286C63.4683 37.9053 63.7848 38.0089 64.0885 38.1395C64.3951 38.27 64.669 38.4347 64.9103 38.6334C65.1544 38.8321 65.3474 39.0719 65.4894 39.353C65.6313 39.634 65.7023 39.9632 65.7023 40.3408C65.7023 40.8517 65.5717 41.3016 65.3105 41.6905C65.0494 42.0766 64.6719 42.3789 64.1779 42.5975C63.6869 42.8132 63.0922 42.9211 62.3939 42.9211C61.7155 42.9211 61.1265 42.816 60.6269 42.606C60.1301 42.3959 59.7412 42.0894 59.4602 41.6863C59.182 41.2832 59.0316 40.7921 59.0089 40.213H60.563C60.5857 40.5168 60.6794 40.7694 60.844 40.9709C61.0087 41.1725 61.223 41.3229 61.487 41.4223C61.7538 41.5216 62.0518 41.5713 62.3811 41.5713C62.7246 41.5713 63.0255 41.5202 63.2838 41.418C63.5449 41.313 63.7493 41.1682 63.8969 40.9837C64.0445 40.7964 64.1198 40.5778 64.1226 40.328C64.1198 40.1009 64.053 39.9136 63.9225 39.766C63.7919 39.6155 63.6088 39.4906 63.3732 39.3913C63.1404 39.2891 62.8679 39.1982 62.5557 39.1188L61.5636 38.8633C60.8454 38.6788 60.2777 38.3992 59.8605 38.0245C59.446 37.647 59.2388 37.1459 59.2388 36.5215C59.2388 36.0077 59.3779 35.5578 59.6561 35.1717C59.9371 34.7857 60.3189 34.4862 60.8014 34.2733C61.284 34.0576 61.8304 33.9497 62.4407 33.9497C63.0595 33.9497 63.6017 34.0576 64.0672 34.2733C64.5356 34.4862 64.9032 34.7828 65.17 35.1632C65.4369 35.5407 65.5745 35.975 65.583 36.4661H64.063ZM70.5722 34.0689V42.7891H68.9925V35.606H68.9414L66.9019 36.9089V35.4612L69.0692 34.0689H70.5722ZM75.9159 42.9083C75.3027 42.9083 74.7577 42.8033 74.2808 42.5932C73.8068 42.3831 73.4321 42.0908 73.1568 41.7161C72.8814 41.3414 72.7352 40.9085 72.7182 40.4174H74.3192C74.3333 40.653 74.4114 40.8588 74.5533 41.0348C74.6953 41.208 74.884 41.3428 75.1196 41.4393C75.3552 41.5358 75.6192 41.5841 75.9116 41.5841C76.2238 41.5841 76.5006 41.5301 76.7419 41.4223C76.9832 41.3116 77.1719 41.1583 77.3082 40.9624C77.4444 40.7666 77.5111 40.5409 77.5083 40.2854C77.5111 40.0214 77.443 39.7887 77.3039 39.5871C77.1648 39.3856 76.9633 39.2281 76.6993 39.1145C76.4382 39.001 76.1231 38.9442 75.7541 38.9442H74.9834V37.7264H75.7541C76.0578 37.7264 76.3232 37.6739 76.5503 37.5689C76.7802 37.4639 76.9605 37.3163 77.091 37.1261C77.2216 36.9331 77.2855 36.7102 77.2826 36.4576C77.2855 36.2106 77.2301 35.9963 77.1166 35.8147C77.0059 35.6301 76.8483 35.4868 76.644 35.3846C76.4424 35.2824 76.2054 35.2313 75.9329 35.2313C75.6661 35.2313 75.4191 35.2796 75.192 35.3761C74.9649 35.4726 74.7818 35.6103 74.6428 35.7891C74.5037 35.9651 74.4299 36.1752 74.4213 36.4193H72.9013C72.9126 35.931 73.0531 35.5024 73.3228 35.1334C73.5953 34.7615 73.9587 34.472 74.4128 34.2648C74.867 34.0547 75.3765 33.9497 75.9414 33.9497C76.5233 33.9497 77.0286 34.059 77.4572 34.2776C77.8887 34.4933 78.2222 34.7842 78.4578 35.1504C78.6934 35.5166 78.8112 35.9211 78.8112 36.3639C78.8141 36.855 78.6693 37.2666 78.3769 37.5987C78.0874 37.9308 77.707 38.148 77.2358 38.2502V38.3183C77.8489 38.4034 78.3187 38.6305 78.6452 38.9995C78.9744 39.3657 79.1377 39.8213 79.1348 40.3663C79.1348 40.8546 78.9957 41.2917 78.7175 41.6778C78.4422 42.061 78.0618 42.3619 77.5764 42.5804C77.0939 42.799 76.5403 42.9083 75.9159 42.9083ZM82.1654 41.5969L82.11 42.0652C82.0703 42.4229 81.9993 42.7862 81.8971 43.1552C81.7978 43.5271 81.6927 43.8691 81.582 44.1814C81.4713 44.4936 81.3819 44.7392 81.3138 44.918H80.2749C80.3146 44.7448 80.3685 44.5092 80.4367 44.2112C80.5076 43.9131 80.5758 43.5782 80.641 43.2063C80.7063 42.8345 80.7503 42.4569 80.773 42.0737L80.8028 41.5969H82.1654ZM86.7287 42.9083C86.3115 42.9054 85.9041 42.8331 85.5067 42.6911C85.1093 42.5464 84.7517 42.3122 84.4338 41.9886C84.1158 41.6621 83.8632 41.2293 83.6758 40.6899C83.4885 40.1478 83.3962 39.4764 83.3991 38.6759C83.3991 37.9294 83.4786 37.2638 83.6375 36.679C83.7965 36.0943 84.025 35.6003 84.323 35.1973C84.6211 34.7913 84.9802 34.4819 85.4003 34.269C85.8232 34.0561 86.2959 33.9497 86.8182 33.9497C87.366 33.9497 87.8514 34.0576 88.2744 34.2733C88.7001 34.489 89.0436 34.7842 89.3048 35.1589C89.5659 35.5308 89.7277 35.9509 89.7902 36.4193H88.236C88.1566 36.0843 87.9933 35.8175 87.7464 35.6188C87.5023 35.4173 87.1929 35.3165 86.8182 35.3165C86.2135 35.3165 85.748 35.579 85.4216 36.1042C85.098 36.6293 84.9348 37.3503 84.9319 38.2672H84.9915C85.1306 38.0174 85.3109 37.8031 85.5323 37.6243C85.7537 37.4454 86.0035 37.3077 86.2817 37.2112C86.5627 37.1119 86.8593 37.0622 87.1716 37.0622C87.6825 37.0622 88.1409 37.1843 88.5469 37.4284C88.9556 37.6725 89.2792 38.0089 89.5177 38.4375C89.7561 38.8633 89.8739 39.3515 89.8711 39.9022C89.8739 40.4756 89.7433 40.9908 89.4793 41.4478C89.2154 41.902 88.8478 42.2597 88.3765 42.5208C87.9053 42.782 87.3561 42.9111 86.7287 42.9083ZM86.7202 41.6309C87.0296 41.6309 87.3064 41.5557 87.5505 41.4053C87.7946 41.2548 87.9877 41.0518 88.1296 40.7964C88.2715 40.5409 88.3411 40.2542 88.3382 39.9363C88.3411 39.624 88.2729 39.3416 88.1338 39.089C87.9976 38.8363 87.8088 38.6362 87.5676 38.4886C87.3263 38.341 87.0509 38.2672 86.7415 38.2672C86.5116 38.2672 86.2973 38.3112 86.0986 38.3992C85.8999 38.4872 85.7267 38.6092 85.5791 38.7654C85.4315 38.9186 85.3151 39.0975 85.23 39.3019C85.1477 39.5034 85.1051 39.7191 85.1022 39.9491C85.1051 40.2528 85.176 40.5324 85.3151 40.7879C85.4542 41.0433 85.6458 41.2477 85.8899 41.401C86.1341 41.5543 86.4108 41.6309 86.7202 41.6309ZM94.3376 33.9497C94.7549 33.9525 95.1608 34.0263 95.5553 34.1711C95.9527 34.313 96.3104 34.5458 96.6283 34.8694C96.9462 35.1902 97.1989 35.6202 97.3862 36.1595C97.5736 36.6989 97.6672 37.3659 97.6672 38.1607C97.6701 38.9101 97.5906 39.58 97.4288 40.1705C97.2698 40.7581 97.0413 41.2548 96.7433 41.6607C96.4452 42.0666 96.0862 42.376 95.666 42.5889C95.2459 42.8018 94.7733 42.9083 94.2482 42.9083C93.6975 42.9083 93.2092 42.8004 92.7835 42.5847C92.3605 42.369 92.0185 42.0737 91.7573 41.699C91.4962 41.3244 91.3358 40.8957 91.2762 40.4132H92.8303C92.9098 40.7595 93.0716 41.0348 93.3157 41.2392C93.5626 41.4407 93.8735 41.5415 94.2482 41.5415C94.8528 41.5415 95.3183 41.2789 95.6448 40.7538C95.9712 40.2287 96.1344 39.4991 96.1344 38.5652H96.0748C95.9357 38.815 95.7555 39.0308 95.534 39.2124C95.3126 39.3913 95.0614 39.5289 94.7804 39.6255C94.5022 39.722 94.207 39.7702 93.8948 39.7702C93.3838 39.7702 92.924 39.6482 92.5152 39.404C92.1093 39.1599 91.7871 38.825 91.5487 38.3992C91.3131 37.9734 91.1938 37.4866 91.191 36.9387C91.191 36.371 91.3216 35.8615 91.5827 35.4102C91.8467 34.956 92.2143 34.5983 92.6855 34.3372C93.1567 34.0732 93.7074 33.944 94.3376 33.9497ZM94.3418 35.2271C94.0353 35.2271 93.7585 35.3023 93.5116 35.4527C93.2674 35.6003 93.0744 35.8019 92.9325 36.0574C92.7934 36.31 92.7238 36.5924 92.7238 36.9047C92.7267 37.2141 92.7962 37.4951 92.9325 37.7477C93.0716 38.0004 93.2603 38.2005 93.4988 38.3481C93.7401 38.4957 94.0154 38.5695 94.3248 38.5695C94.5547 38.5695 94.769 38.5255 94.9677 38.4375C95.1664 38.3495 95.3396 38.2275 95.4872 38.0713C95.6377 37.9124 95.754 37.7321 95.8364 37.5306C95.9215 37.329 95.9627 37.1161 95.9598 36.8919C95.9598 36.5938 95.8889 36.3185 95.7469 36.0659C95.6078 35.8132 95.4162 35.6103 95.1721 35.457C94.9308 35.3037 94.6541 35.2271 94.3418 35.2271ZM102.308 42.9551C101.607 42.9551 101.005 42.7777 100.503 42.4229C100.003 42.0652 99.6188 41.55 99.3491 40.8773C99.0823 40.2017 98.9489 39.3884 98.9489 38.4375C98.9517 37.4866 99.0865 36.6776 99.3534 36.0105C99.623 35.3406 100.008 34.8297 100.507 34.4777C101.01 34.1257 101.61 33.9497 102.308 33.9497C103.007 33.9497 103.607 34.1257 104.109 34.4777C104.612 34.8297 104.996 35.3406 105.263 36.0105C105.533 36.6804 105.668 37.4894 105.668 38.4375C105.668 39.3913 105.533 40.2059 105.263 40.8815C104.996 41.5543 104.612 42.0681 104.109 42.4229C103.61 42.7777 103.009 42.9551 102.308 42.9551ZM102.308 41.6224C102.853 41.6224 103.283 41.3542 103.598 40.8177C103.916 40.2783 104.075 39.4849 104.075 38.4375C104.075 37.7449 104.003 37.163 103.858 36.6918C103.713 36.2206 103.509 35.8657 103.245 35.6273C102.981 35.386 102.669 35.2654 102.308 35.2654C101.766 35.2654 101.338 35.5351 101.022 36.0744C100.707 36.6109 100.548 37.3986 100.546 38.4375C100.543 39.133 100.612 39.7177 100.754 40.1918C100.899 40.6658 101.103 41.0235 101.367 41.2647C101.631 41.5032 101.945 41.6224 102.308 41.6224Z" fill="#636A72"/>
<path d="M114.743 41.3587C114.385 41.3587 114.067 41.2973 113.789 41.1747C113.512 41.0521 113.293 40.8814 113.133 40.6626C112.972 40.4439 112.886 40.1912 112.877 39.9045H113.811C113.819 40.042 113.865 40.1622 113.948 40.2649C114.031 40.366 114.141 40.4447 114.278 40.5011C114.416 40.5574 114.57 40.5856 114.741 40.5856C114.923 40.5856 115.085 40.5541 115.226 40.4911C115.366 40.4265 115.477 40.337 115.556 40.2227C115.636 40.1083 115.675 39.9766 115.673 39.8274C115.675 39.6733 115.635 39.5374 115.554 39.4197C115.473 39.3021 115.355 39.2101 115.201 39.1438C115.048 39.0775 114.864 39.0444 114.649 39.0444H114.199V38.3335H114.649C114.826 38.3335 114.981 38.3028 115.114 38.2415C115.248 38.1802 115.353 38.094 115.429 37.983C115.506 37.8703 115.543 37.7402 115.541 37.5927C115.543 37.4485 115.511 37.3234 115.444 37.2173C115.38 37.1096 115.288 37.0259 115.168 36.9663C115.051 36.9066 114.912 36.8768 114.753 36.8768C114.598 36.8768 114.453 36.9049 114.321 36.9613C114.188 37.0176 114.081 37.098 114 37.2024C113.919 37.3052 113.876 37.4278 113.871 37.5703H112.983C112.99 37.2853 113.072 37.035 113.229 36.8196C113.389 36.6025 113.601 36.4335 113.866 36.3125C114.131 36.1899 114.428 36.1286 114.758 36.1286C115.098 36.1286 115.393 36.1924 115.643 36.32C115.895 36.4459 116.09 36.6158 116.227 36.8295C116.365 37.0433 116.434 37.2795 116.434 37.538C116.435 37.8247 116.351 38.065 116.18 38.2589C116.011 38.4528 115.789 38.5795 115.514 38.6392V38.679C115.872 38.7287 116.146 38.8613 116.337 39.0767C116.529 39.2905 116.624 39.5565 116.623 39.8746C116.623 40.1597 116.541 40.4149 116.379 40.6403C116.218 40.864 115.996 41.0397 115.713 41.1673C115.431 41.2949 115.108 41.3587 114.743 41.3587ZM119.34 41.3587C119.097 41.357 118.859 41.3147 118.627 41.2319C118.395 41.1474 118.186 41.0107 118 40.8217C117.815 40.6312 117.667 40.3784 117.558 40.0636C117.449 39.747 117.395 39.3551 117.396 38.8878C117.396 38.4519 117.443 38.0633 117.536 37.7219C117.628 37.3806 117.762 37.0922 117.936 36.8569C118.11 36.6199 118.319 36.4393 118.565 36.315C118.812 36.1907 119.087 36.1286 119.392 36.1286C119.712 36.1286 119.996 36.1915 120.243 36.3175C120.491 36.4434 120.692 36.6158 120.844 36.8345C120.997 37.0516 121.091 37.2969 121.127 37.5703H120.22C120.174 37.3748 120.078 37.219 119.934 37.103C119.792 36.9853 119.611 36.9265 119.392 36.9265C119.039 36.9265 118.768 37.0798 118.577 37.3864C118.388 37.6929 118.293 38.1139 118.291 38.6491H118.326C118.407 38.5033 118.512 38.3782 118.642 38.2738C118.771 38.1694 118.917 38.089 119.079 38.0327C119.243 37.9747 119.416 37.9457 119.599 37.9457C119.897 37.9457 120.165 38.0169 120.402 38.1594C120.64 38.302 120.829 38.4983 120.968 38.7486C121.108 38.9972 121.176 39.2822 121.175 39.6037C121.176 39.9384 121.1 40.2392 120.946 40.506C120.792 40.7712 120.577 40.98 120.302 41.1325C120.027 41.2849 119.706 41.3603 119.34 41.3587ZM119.335 40.6129C119.516 40.6129 119.677 40.569 119.82 40.4812C119.962 40.3933 120.075 40.2749 120.158 40.1257C120.241 39.9766 120.281 39.8092 120.28 39.6236C120.281 39.4413 120.242 39.2764 120.161 39.1289C120.081 38.9814 119.971 38.8646 119.83 38.7784C119.689 38.6922 119.528 38.6491 119.348 38.6491C119.213 38.6491 119.088 38.6748 118.972 38.7262C118.856 38.7776 118.755 38.8488 118.669 38.94C118.583 39.0295 118.515 39.1339 118.465 39.2532C118.417 39.3709 118.392 39.4968 118.391 39.631C118.392 39.8084 118.434 39.9716 118.515 40.1207C118.596 40.2699 118.708 40.3892 118.85 40.4787C118.993 40.5682 119.155 40.6129 119.335 40.6129ZM124.737 40.3345V40.0661C124.737 39.8688 124.778 39.6874 124.861 39.5217C124.946 39.3559 125.068 39.2225 125.229 39.1214C125.39 39.0204 125.585 38.9698 125.813 38.9698C126.049 38.9698 126.246 39.0204 126.405 39.1214C126.564 39.2209 126.684 39.3535 126.765 39.5192C126.848 39.6849 126.89 39.8672 126.89 40.0661V40.3345C126.89 40.5317 126.848 40.7132 126.765 40.8789C126.682 41.0446 126.561 41.178 126.4 41.2791C126.241 41.3802 126.045 41.4308 125.813 41.4308C125.581 41.4308 125.385 41.3802 125.224 41.2791C125.063 41.178 124.942 41.0446 124.859 40.8789C124.777 40.7132 124.737 40.5317 124.737 40.3345ZM125.386 40.0661V40.3345C125.386 40.4654 125.417 40.5856 125.48 40.695C125.543 40.8043 125.654 40.859 125.813 40.859C125.974 40.859 126.084 40.8052 126.144 40.6974C126.205 40.5881 126.236 40.4671 126.236 40.3345V40.0661C126.236 39.9335 126.207 39.8125 126.149 39.7031C126.091 39.5921 125.979 39.5366 125.813 39.5366C125.657 39.5366 125.547 39.5921 125.483 39.7031C125.418 39.8125 125.386 39.9335 125.386 40.0661ZM122.149 37.4212V37.1527C122.149 36.9538 122.191 36.7715 122.276 36.6058C122.36 36.4401 122.483 36.3075 122.644 36.2081C122.805 36.107 122.999 36.0565 123.228 36.0565C123.462 36.0565 123.658 36.107 123.817 36.2081C123.978 36.3075 124.099 36.4401 124.18 36.6058C124.261 36.7715 124.302 36.9538 124.302 37.1527V37.4212C124.302 37.62 124.26 37.8023 124.178 37.968C124.096 38.1321 123.975 38.2638 123.815 38.3633C123.654 38.4627 123.458 38.5124 123.228 38.5124C122.994 38.5124 122.797 38.4627 122.636 38.3633C122.477 38.2638 122.356 38.1313 122.273 37.9656C122.191 37.7998 122.149 37.6184 122.149 37.4212ZM122.803 37.1527V37.4212C122.803 37.5537 122.834 37.6747 122.895 37.7841C122.958 37.8918 123.069 37.9457 123.228 37.9457C123.387 37.9457 123.496 37.8918 123.556 37.7841C123.617 37.6747 123.648 37.5537 123.648 37.4212V37.1527C123.648 37.0201 123.619 36.8991 123.561 36.7898C123.503 36.6787 123.392 36.6232 123.228 36.6232C123.071 36.6232 122.96 36.6787 122.897 36.7898C122.834 36.9008 122.803 37.0218 122.803 37.1527ZM122.433 41.2891L125.933 36.1982H126.554L123.054 41.2891H122.433Z" fill="#FFA632"/>
<path d="M131.348 37.3481L132.904 38.9044C132.979 38.9795 132.979 39.1012 132.904 39.1762L132.722 39.3578C132.647 39.4327 132.526 39.4328 132.451 39.3581L131.212 38.1246L129.972 39.3581C129.897 39.4328 129.776 39.4327 129.701 39.3578L129.519 39.1762C129.444 39.1012 129.444 38.9795 129.519 38.9044L131.076 37.3481C131.151 37.273 131.272 37.273 131.348 37.3481Z" fill="#FFA632"/>
<rect x="58.4639" y="63.7461" width="5.42414" height="48.4604" rx="2.71207" fill="white"/>
<rect x="58.4639" y="97.2188" width="5.42414" height="14.9877" rx="2.71207" fill="#FF8A0A"/>
<rect x="71.8813" y="63.7461" width="5.42414" height="48.4604" rx="2.71207" fill="white"/>
<rect x="71.8813" y="73.2383" width="5.42414" height="38.9681" rx="2.71207" fill="#FF8A0A"/>
<rect x="85.2991" y="63.7461" width="5.42414" height="48.4604" rx="2.71207" fill="white"/>
<rect x="85.2991" y="87.7266" width="5.42414" height="24.48" rx="2.71207" fill="#FF8A0A"/>
<rect x="98.7166" y="63.7461" width="5.42414" height="48.4604" rx="2.71207" fill="white"/>
<rect x="98.7166" y="83.2305" width="5.42414" height="28.9763" rx="2.71207" fill="#FF8A0A"/>
<rect x="112.134" y="63.7461" width="5.42414" height="48.4604" rx="2.71207" fill="white"/>
<rect x="112.134" y="76.7344" width="5.42414" height="35.471" rx="2.71207" fill="#FF8A0A"/>
<rect x="125.552" y="63.7461" width="5.42414" height="48.4604" rx="2.71207" fill="white"/>
<rect x="125.552" y="97.2188" width="5.42414" height="14.9877" rx="2.71207" fill="#FF8A0A"/>
<rect x="138.969" y="63.7461" width="5.42414" height="48.4604" rx="2.71207" fill="white"/>
<rect x="138.969" y="87.7266" width="5.42414" height="24.48" rx="2.71207" fill="#FF8A0A"/>
<rect x="152.387" y="63.7461" width="5.42414" height="48.4604" rx="2.71207" fill="white"/>
<rect x="152.387" y="73.2383" width="5.42414" height="38.9681" rx="2.71207" fill="#FF8A0A"/>
<rect x="165.805" y="63.7461" width="5.42414" height="48.4604" rx="2.71207" fill="white"/>
<rect x="165.805" y="87.7266" width="5.42414" height="24.48" rx="2.71207" fill="#FF8A0A"/>
<g filter="url(#filter0_d_21931_144707)">
<path d="M217.154 31H148.846C147.742 31 146.846 31.8954 146.846 33V49C146.846 50.1046 147.742 51 148.846 51H217.154C218.258 51 219.154 50.1046 219.154 49V33C219.154 31.8954 218.258 31 217.154 31Z" fill="black"/>
</g>
<path d="M217.154 31H148.846C147.742 31 146.846 31.8954 146.846 33V49C146.846 50.1046 147.742 51 148.846 51H217.154C218.258 51 219.154 50.1046 219.154 49V33C219.154 31.8954 218.258 31 217.154 31Z" fill="white"/>
<path d="M204.308 36.3828H167.077C166.525 36.3828 166.077 36.8305 166.077 37.3828V39.229C166.077 39.7813 166.525 40.229 167.077 40.229H204.308C204.86 40.229 205.308 39.7813 205.308 39.229V37.3828C205.308 36.8305 204.86 36.3828 204.308 36.3828Z" fill="#FFF2D3"/>
<path d="M180.462 42.5391H167.077C166.525 42.5391 166.077 42.9868 166.077 43.5391V44.616C166.077 45.1683 166.525 45.616 167.077 45.616H180.462C181.014 45.616 181.462 45.1683 181.462 44.616V43.5391C181.462 42.9868 181.014 42.5391 180.462 42.5391Z" fill="#FFF2D3"/>
<path d="M156.846 47.1514C160.245 47.1514 163 44.3963 163 40.9976C163 37.5989 160.245 34.8438 156.846 34.8438C153.448 34.8438 150.692 37.5989 150.692 40.9976C150.692 44.3963 153.448 47.1514 156.846 47.1514Z" fill="#FFF2D3"/>
<path d="M156.63 41.2574C157.673 41.2574 158.519 40.4119 158.519 39.369C158.519 38.326 157.673 37.4805 156.63 37.4805C155.587 37.4805 154.742 38.326 154.742 39.3689C154.742 40.4119 155.587 41.2574 156.63 41.2574ZM159.821 43.211V43.8335C159.821 43.9258 159.753 44.033 159.669 44.0705C159.342 44.2159 158.451 44.5134 156.63 44.5134C154.809 44.5134 153.918 44.2159 153.592 44.0705C153.507 44.033 153.439 43.9258 153.439 43.8335V43.211C153.439 42.2782 154.15 41.5043 155.056 41.4007C155.083 41.3975 155.124 41.4093 155.147 41.4256C155.565 41.7281 156.076 41.9086 156.63 41.9086C157.184 41.9086 157.696 41.7281 158.114 41.4256C158.136 41.4093 158.177 41.3975 158.205 41.4007C159.111 41.5043 159.821 42.2782 159.821 43.211Z" fill="#FFA632"/>
<path fill-rule="evenodd" clip-rule="evenodd" d="M157.525 40.1172C157.439 40.4012 157.071 40.6148 156.63 40.6148C156.189 40.6148 155.821 40.4012 155.735 40.1172H157.525Z" fill="#FFF2D3"/>
<g filter="url(#filter1_d_21931_144707)">
<path d="M81.1539 53H12.8462C11.7416 53 10.8462 53.8954 10.8462 55V71C10.8462 72.1046 11.7416 73 12.8462 73H81.1539C82.2585 73 83.1539 72.1046 83.1539 71V55C83.1539 53.8954 82.2585 53 81.1539 53Z" fill="black"/>
</g>
<path d="M81.1539 53H12.8462C11.7416 53 10.8462 53.8954 10.8462 55V71C10.8462 72.1046 11.7416 73 12.8462 73H81.1539C82.2585 73 83.1539 72.1046 83.1539 71V55C83.1539 53.8954 82.2585 53 81.1539 53Z" fill="white"/>
<path d="M68.3077 58.3828H31.0769C30.5246 58.3828 30.0769 58.8305 30.0769 59.3828V61.229C30.0769 61.7813 30.5246 62.229 31.0769 62.229H68.3077C68.86 62.229 69.3077 61.7813 69.3077 61.229V59.3828C69.3077 58.8305 68.86 58.3828 68.3077 58.3828Z" fill="#FFF2D3"/>
<path d="M44.4615 64.5391H31.0769C30.5246 64.5391 30.0769 64.9868 30.0769 65.5391V66.616C30.0769 67.1683 30.5246 67.616 31.0769 67.616H44.4615C45.0138 67.616 45.4615 67.1683 45.4615 66.616V65.5391C45.4615 64.9868 45.0138 64.5391 44.4615 64.5391Z" fill="#FFF2D3"/>
<path d="M20.8462 69.1514C24.2449 69.1514 27.0001 66.3963 27.0001 62.9976C27.0001 59.5989 24.2449 56.8438 20.8462 56.8438C17.4476 56.8438 14.6924 59.5989 14.6924 62.9976C14.6924 66.3963 17.4476 69.1514 20.8462 69.1514Z" fill="#FFF2D3"/>
<path d="M20.6303 63.2574C21.6733 63.2574 22.5188 62.4119 22.5188 61.369C22.5188 60.326 21.6733 59.4805 20.6303 59.4805C19.5873 59.4805 18.7419 60.326 18.7419 61.3689C18.7419 62.4119 19.5873 63.2574 20.6303 63.2574ZM23.8212 65.211V65.8335C23.8212 65.9258 23.7533 66.033 23.669 66.0705C23.3423 66.2159 22.4512 66.5134 20.6303 66.5134C18.8094 66.5134 17.9184 66.2159 17.5917 66.0705C17.5074 66.033 17.4395 65.9258 17.4395 65.8335V65.211C17.4395 64.2782 18.1497 63.5043 19.056 63.4007C19.0835 63.3975 19.1243 63.4093 19.1468 63.4256C19.5646 63.7281 20.0762 63.9086 20.6303 63.9086C21.1845 63.9086 21.6961 63.7281 22.1139 63.4256C22.1363 63.4093 22.1772 63.3975 22.2047 63.4007C23.111 63.5043 23.8212 64.2782 23.8212 65.211Z" fill="#FFA632"/>
<path fill-rule="evenodd" clip-rule="evenodd" d="M21.5253 62.1172C21.4394 62.4012 21.0714 62.6148 20.6303 62.6148C20.1893 62.6148 19.8213 62.4012 19.7354 62.1172H21.5253Z" fill="#FFF2D3"/>
<defs>
<filter id="filter0_d_21931_144707" x="136.846" y="21" width="92.3076" height="40" filterUnits="userSpaceOnUse" color-interpolation-filters="sRGB">
<feFlood flood-opacity="0" result="BackgroundImageFix"/>
<feColorMatrix in="SourceAlpha" type="matrix" values="0 0 0 0 0 0 0 0 0 0 0 0 0 0 0 0 0 0 127 0" result="hardAlpha"/>
<feOffset/>
<feGaussianBlur stdDeviation="5"/>
<feColorMatrix type="matrix" values="0 0 0 0 0 0 0 0 0 0.333333 0 0 0 0 0.572549 0 0 0 0.1 0"/>
<feBlend mode="normal" in2="BackgroundImageFix" result="effect1_dropShadow_21931_144707"/>
<feBlend mode="normal" in="SourceGraphic" in2="effect1_dropShadow_21931_144707" result="shape"/>
</filter>
<filter id="filter1_d_21931_144707" x="0.846191" y="43" width="92.3076" height="40" filterUnits="userSpaceOnUse" color-interpolation-filters="sRGB">
<feFlood flood-opacity="0" result="BackgroundImageFix"/>
<feColorMatrix in="SourceAlpha" type="matrix" values="0 0 0 0 0 0 0 0 0 0 0 0 0 0 0 0 0 0 127 0" result="hardAlpha"/>
<feOffset/>
<feGaussianBlur stdDeviation="5"/>
<feColorMatrix type="matrix" values="0 0 0 0 0 0 0 0 0 0.333333 0 0 0 0 0.572549 0 0 0 0.1 0"/>
<feBlend mode="normal" in2="BackgroundImageFix" result="effect1_dropShadow_21931_144707"/>
<feBlend mode="normal" in="SourceGraphic" in2="effect1_dropShadow_21931_144707" result="shape"/>
</filter>
</defs>
</svg>
