<svg width="111" height="22" viewBox="0 0 111 22" fill="none" xmlns="http://www.w3.org/2000/svg">
<path d="M17.0719 14.261C17.0719 18.2607 20.211 21.4299 24.2128 21.4299C28.214 21.4299 31.3537 18.2893 31.3537 14.261C31.3537 10.2862 28.1834 7.17617 24.2128 7.17617C20.1851 7.17617 17.0719 10.2873 17.0719 14.261ZM28.3559 14.261C28.3559 16.7927 26.6159 18.6002 24.2128 18.6002C21.8097 18.6002 20.0697 16.7927 20.0697 14.261C20.0697 11.7888 21.8065 10.0059 24.2128 10.0059C26.5928 10.0059 28.3559 11.7624 28.3559 14.261Z" fill="#131313" stroke="#131313" stroke-width="0.39375"/>
<path d="M11.92 0.764063H11.7231V0.960938V8.95593C10.6944 7.84172 9.18851 7.17606 7.44 7.17606C3.67748 7.17606 0.803125 10.3025 0.803125 14.3169C0.803125 18.3045 3.67852 21.4298 7.468 21.4298C9.18385 21.4298 10.7076 20.7918 11.7231 19.685V20.9529V21.1498H11.92H14.468H14.6649V20.9529V0.960938V0.764063H14.468H11.92ZM11.8911 14.3169C11.8911 15.6048 11.4781 16.6889 10.7777 17.449C10.0785 18.2079 9.08204 18.6561 7.888 18.6561C6.67904 18.6561 5.66109 18.2072 4.94451 17.4442C4.22709 16.6802 3.80088 15.5895 3.80088 14.2889C3.80088 13.0029 4.22679 11.9189 4.94103 11.1582C5.65447 10.3983 6.66562 9.94981 7.86 9.94981C9.06863 9.94981 10.0719 10.3984 10.7742 11.1604C11.4778 11.9237 11.8911 13.0146 11.8911 14.3169Z" fill="#131313" stroke="#131313" stroke-width="0.39375"/>
<path d="M92.1374 18.6578L92.0128 18.7824L92.1229 18.92C93.3961 20.5116 95.3873 21.4299 97.6806 21.4299C99.2111 21.4299 100.485 21.0294 101.38 20.2893C102.279 19.5457 102.777 18.4734 102.777 17.173C102.777 15.8788 102.31 14.9904 101.601 14.3562C100.901 13.7307 99.9781 13.3627 99.0848 13.0761C98.7937 12.9827 98.5081 12.8984 98.2329 12.8172C97.646 12.644 97.1064 12.4848 96.6619 12.2809C96.0168 11.985 95.6655 11.6362 95.6655 11.097C95.6655 10.7321 95.8258 10.4357 96.1508 10.2221C96.4847 10.0025 97.0017 9.86592 97.7086 9.86592C99.0526 9.86592 100.085 10.3734 100.801 11.3013L100.937 11.4786L101.096 11.3203L102.72 9.69626L102.84 9.5759L102.738 9.43942C101.631 7.95317 99.9155 7.17617 97.7926 7.17617C96.2909 7.17617 95.052 7.56229 94.1848 8.27822C93.3133 8.99767 92.8357 10.0353 92.8357 11.293C92.8357 12.5615 93.3071 13.4212 94.0204 14.0306C94.7227 14.6305 95.6493 14.9785 96.544 15.2575C96.7787 15.3307 97.0102 15.3989 97.2357 15.4653C97.8861 15.6571 98.4864 15.834 98.9699 16.0725C99.2908 16.2309 99.5419 16.4086 99.7123 16.6207C99.8793 16.8285 99.9757 17.0776 99.9757 17.397C99.9757 17.8156 99.7898 18.1391 99.4243 18.3676C99.048 18.6028 98.4739 18.7402 97.7086 18.7402C96.1939 18.7402 94.9656 18.2026 94.055 17.0509L93.9178 16.8774L93.7614 17.0338L92.1374 18.6578Z" fill="#131313" stroke="#131313" stroke-width="0.39375"/>
<path d="M80.1034 20.9529V21.1498H80.3003H82.8203H83.0172V20.9529V14.8815L88.6667 21.0855L88.7253 21.1498H88.8123H92.0603H92.51L92.205 20.8194L85.9467 14.0396L91.9503 7.78932L92.2704 7.45606H91.8083H88.7563H88.6716L88.6133 7.51761L83.0172 13.4305V0.960938V0.764063H82.8203H80.3003H80.1034V0.960938V20.9529Z" fill="#131313" stroke="#131313" stroke-width="0.39375"/>
<path d="M68.8651 20.953V21.1499H69.062H71.582H71.7789V20.953V13.365C71.7789 12.196 72.0979 11.3464 72.6182 10.7906C73.1373 10.236 73.879 9.94992 74.774 9.94992C75.5938 9.94992 76.1865 10.1839 76.7348 10.7323L76.8764 10.8738L77.0155 10.7299L78.6675 9.02192L78.793 8.89221L78.6747 8.75596C77.7117 7.64708 76.5926 7.17617 75.194 7.17617C73.7445 7.17617 72.5819 7.69506 71.7789 8.62781V7.65305V7.45617H71.582H69.062H68.8651V7.65305V20.953Z" fill="#131313" stroke="#131313" stroke-width="0.39375"/>
<path d="M52.1376 14.261C52.1376 18.2607 55.2767 21.4299 59.2785 21.4299C63.2797 21.4299 66.4193 18.2893 66.4193 14.261C66.4193 10.2862 63.2491 7.17617 59.2785 7.17617C55.2508 7.17617 52.1376 10.2873 52.1376 14.261ZM63.4216 14.261C63.4216 16.7927 61.6816 18.6002 59.2785 18.6002C56.8754 18.6002 55.1353 16.7927 55.1353 14.261C55.1353 11.7888 56.8722 10.0059 59.2785 10.0059C61.6584 10.0059 63.4216 11.7624 63.4216 14.261Z" fill="#131313" stroke="#131313" stroke-width="0.39375"/>
<circle cx="108.5" cy="19.0742" r="2.5" fill="#FB7000"/>
<path d="M37.094 21.4104L32.1921 12.2312L36.2346 14.9551C36.7261 15.2863 37.3871 15.2011 37.7787 14.7562L43.7573 7.96289L37.094 21.4104Z" fill="#FB7000"/>
<path d="M43.7662 21.4238L38.7754 12.212L42.8463 14.8968C43.3641 15.2383 44.0579 15.1203 44.4337 14.6269L55.2498 0.423828L43.7662 21.4238Z" fill="#FB7000"/>
</svg>
