<svg width="1366" height="400" viewBox="0 0 1366 400" fill="none" xmlns="http://www.w3.org/2000/svg">
<g opacity="0.1">
<path d="M350.457 347.753H415.147V130.421H350.457V347.753Z" fill="#B5C3C2"/>
<path d="M361.027 206.169H404.577V114.839H361.027V206.169Z" fill="#B5C3C2"/>
<path d="M370.723 155.614H394.88V104.956H370.723V155.614Z" fill="#B5C3C2"/>
<path d="M391.033 130.987H374.571V96.4624H391.033V130.987Z" fill="#B5C3C2"/>
<path d="M381.718 115.953H379.931V81.4294H381.718V115.953Z" fill="#B5C3C2"/>
<path d="M385.672 104.021H383.887V69.4973H385.672V104.021Z" fill="#B5C3C2"/>
<path d="M416.873 132.179H348.731V129.864H416.873V132.179Z" fill="#B5C3C2"/>
<path d="M406.166 115.953H359.439V113.724H406.166V115.953Z" fill="#B5C3C2"/>
<path d="M395.894 105.727H368.963V104.019H395.894V105.727Z" fill="#B5C3C2"/>
<path d="M365.032 128.116H367.056V118.546H365.032V128.116Z" fill="#B5C3C2"/>
<path d="M370.633 128.116H370.722V118.546H370.633V128.116Z" fill="#B5C3C2"/>
<path d="M370.723 128.116H372.658V118.546H370.723V128.116Z" fill="#B5C3C2"/>
<path d="M376.236 128.116H378.26V118.546H376.236V128.116Z" fill="#B5C3C2"/>
<path d="M381.837 128.116H383.861V118.546H381.837V128.116Z" fill="#B5C3C2"/>
<path d="M387.439 128.116H389.465V118.546H387.439V128.116Z" fill="#B5C3C2"/>
<path d="M394.88 128.116H395.063V118.546H394.88V128.116Z" fill="#B5C3C2"/>
<path d="M393.041 128.116H394.879V118.546H393.041V128.116Z" fill="#B5C3C2"/>
<path d="M398.642 128.116H400.666V118.546H398.642V128.116Z" fill="#B5C3C2"/>
<path d="M361.027 150.438H356.135V139.086H361.027V150.438Z" fill="#B5C3C2"/>
<path d="M365.823 150.44H370.716V139.086H365.823V150.44Z" fill="#B5C3C2"/>
<path d="M380.404 150.438H375.512V139.086H380.404V150.438Z" fill="#B5C3C2"/>
<path d="M390.092 150.438H385.2V139.086H390.092V150.438Z" fill="#B5C3C2"/>
<path d="M399.78 150.438H394.889V139.086H399.78V150.438Z" fill="#B5C3C2"/>
<path d="M409.469 150.438H404.577V139.086H409.469V150.438Z" fill="#B5C3C2"/>
<path d="M361.027 168.138H356.135V156.783H361.027V168.138Z" fill="#B5C3C2"/>
<path d="M370.714 168.138H365.823V156.783H370.714V168.138Z" fill="#B5C3C2"/>
<path d="M380.404 168.138H375.512V156.783H380.404V168.138Z" fill="#B5C3C2"/>
<path d="M385.2 168.138H390.092V156.783H385.2V168.138Z" fill="#B5C3C2"/>
<path d="M399.78 168.138H394.889V156.783H399.78V168.138Z" fill="#B5C3C2"/>
<path d="M409.469 168.138H404.577V156.783H409.469V168.138Z" fill="#B5C3C2"/>
<path d="M361.027 185.835H356.135V174.482H361.027V185.835Z" fill="#B5C3C2"/>
<path d="M370.714 185.835H365.823V174.482H370.714V185.835Z" fill="#B5C3C2"/>
<path d="M380.404 185.835H375.512V174.482H380.404V185.835Z" fill="#B5C3C2"/>
<path d="M390.092 185.835H385.2V174.482H390.092V185.835Z" fill="#B5C3C2"/>
<path d="M394.889 185.835H399.78V174.482H394.889V185.835Z" fill="#B5C3C2"/>
<path d="M404.577 185.835H409.469V174.482H404.577V185.835Z" fill="#B5C3C2"/>
<path d="M356.135 203.532H361.027V192.178H356.135V203.532Z" fill="#B5C3C2"/>
<path d="M370.714 203.532H365.823V192.178H370.714V203.532Z" fill="#B5C3C2"/>
<path d="M380.404 203.532H375.512V192.178H380.404V203.532Z" fill="#B5C3C2"/>
<path d="M390.092 203.532H385.2V192.178H390.092V203.532Z" fill="#B5C3C2"/>
<path d="M399.78 203.532H394.889V192.178H399.78V203.532Z" fill="#B5C3C2"/>
<path d="M409.469 203.532H404.577V192.178H409.469V203.532Z" fill="#B5C3C2"/>
<path d="M361.027 221.231H356.135V209.877H361.027V221.231Z" fill="#B5C3C2"/>
<path d="M365.823 221.231H370.716V209.877H365.823V221.231Z" fill="#B5C3C2"/>
<path d="M380.404 221.231H375.512V209.877H380.404V221.231Z" fill="#B5C3C2"/>
<path d="M385.2 221.231H390.092V209.877H385.2V221.231Z" fill="#B5C3C2"/>
<path d="M399.78 221.231H394.889V209.877H399.78V221.231Z" fill="#B5C3C2"/>
<path d="M409.469 221.231H404.577V209.877H409.469V221.231Z" fill="#B5C3C2"/>
<path d="M361.027 238.928H356.135V227.576H361.027V238.928Z" fill="#B5C3C2"/>
<path d="M370.714 238.928H365.823V227.576H370.714V238.928Z" fill="#B5C3C2"/>
<path d="M380.404 238.928H375.512V227.576H380.404V238.928Z" fill="#B5C3C2"/>
<path d="M390.092 238.928H385.2V227.576H390.092V238.928Z" fill="#B5C3C2"/>
<path d="M399.78 238.928H394.889V227.576H399.78V238.928Z" fill="#B5C3C2"/>
<path d="M404.577 238.928H409.469V227.576H404.577V238.928Z" fill="#B5C3C2"/>
<path d="M361.027 256.625H356.135V245.271H361.027V256.625Z" fill="#B5C3C2"/>
<path d="M365.823 256.625H370.716V245.271H365.823V256.625Z" fill="#B5C3C2"/>
<path d="M375.512 256.625H380.404V245.271H375.512V256.625Z" fill="#B5C3C2"/>
<path d="M390.092 256.625H385.2V245.271H390.092V256.625Z" fill="#B5C3C2"/>
<path d="M399.78 256.625H394.889V245.271H399.78V256.625Z" fill="#B5C3C2"/>
<path d="M409.469 256.625H404.577V245.271H409.469V256.625Z" fill="#B5C3C2"/>
<path d="M361.027 274.325H356.135V262.971H361.027V274.325Z" fill="#B5C3C2"/>
<path d="M370.714 274.325H365.823V262.971H370.714V274.325Z" fill="#B5C3C2"/>
<path d="M380.404 274.325H375.512V262.971H380.404V274.325Z" fill="#B5C3C2"/>
<path d="M390.092 274.325H385.2V262.971H390.092V274.325Z" fill="#B5C3C2"/>
<path d="M394.889 274.325H399.78V262.971H394.889V274.325Z" fill="#B5C3C2"/>
<path d="M409.469 274.325H404.577V262.971H409.469V274.325Z" fill="#B5C3C2"/>
<path d="M361.027 292.022H356.135V280.668H361.027V292.022Z" fill="#B5C3C2"/>
<path d="M365.823 292.022H370.716V280.668H365.823V292.022Z" fill="#B5C3C2"/>
<path d="M380.404 292.022H375.512V280.668H380.404V292.022Z" fill="#B5C3C2"/>
<path d="M390.092 292.022H385.2V280.668H390.092V292.022Z" fill="#B5C3C2"/>
<path d="M399.78 292.022H394.889V280.668H399.78V292.022Z" fill="#B5C3C2"/>
<path d="M409.469 292.022H404.577V280.668H409.469V292.022Z" fill="#B5C3C2"/>
<path d="M361.027 309.719H356.135V298.365H361.027V309.719Z" fill="#B5C3C2"/>
<path d="M370.714 309.719H365.823V298.365H370.714V309.719Z" fill="#B5C3C2"/>
<path d="M380.404 309.719H375.512V298.365H380.404V309.719Z" fill="#B5C3C2"/>
<path d="M385.2 309.719H390.092V298.365H385.2V309.719Z" fill="#B5C3C2"/>
<path d="M399.78 309.719H394.889V298.365H399.78V309.719Z" fill="#B5C3C2"/>
<path d="M404.577 309.719H409.469V298.365H404.577V309.719Z" fill="#B5C3C2"/>
<path d="M356.135 327.416H361.027V316.062H356.135V327.416Z" fill="#B5C3C2"/>
<path d="M370.714 327.416H365.823V316.062H370.714V327.416Z" fill="#B5C3C2"/>
<path d="M375.512 327.416H380.404V316.062H375.512V327.416Z" fill="#B5C3C2"/>
<path d="M390.092 327.416H385.2V316.062H390.092V327.416Z" fill="#B5C3C2"/>
<path d="M399.78 327.416H394.889V316.062H399.78V327.416Z" fill="#B5C3C2"/>
<path d="M409.469 327.416H404.577V316.062H409.469V327.416Z" fill="#B5C3C2"/>
<path d="M162.58 321.77H266.57V138.687H162.58V321.77Z" fill="#B5C3C2"/>
<path d="M269.526 140.716H159.626V135.541H269.526V140.716Z" fill="#B5C3C2"/>
<path d="M166.076 153.511H263.076V128.916H166.076V153.511Z" fill="#B5C3C2"/>
<path d="M211.911 145.727H173.501V118.851H211.911V145.727Z" fill="#B5C3C2"/>
<path d="M195.73 126.426H173.501V112.279H189.444L195.73 126.426Z" fill="#B5C3C2"/>
<path d="M182.46 132.048H184.616V100.537H182.46V132.048Z" fill="#B5C3C2"/>
<path d="M185.472 98.9035C185.472 99.805 184.606 100.536 183.538 100.536C182.468 100.536 181.602 99.805 181.602 98.9035C181.602 98.0007 182.468 97.2696 183.538 97.2696C184.606 97.2696 185.472 98.0007 185.472 98.9035Z" fill="#B5C3C2"/>
<path d="M1127.72 335.708H1013.89L999.68 66.5271L1127.72 88.9583V335.708Z" fill="#B5C3C2"/>
<path d="M631.089 181.98V91.985H613.236V67.8792H606.858V32.5246H571.72V6.54153H568.592V32.5246H561.709V-0.0012207H558.583V32.5246H536.368V91.985H524.894V181.98H515.057V345.898H638.005V181.98H631.089Z" fill="#B5C3C2"/>
<path d="M17.2455 359.673H1377.32V332.371H17.2455V359.673Z" fill="#B5C3C2"/>
<path d="M817.829 352.985H757.601L781.07 251.194H817.829V352.985Z" fill="#95A9A7"/>
<path d="M-31.5522 399.999H1396.47V356.947H-31.5522V399.999Z" fill="#95A9A7"/>
<path d="M768.472 164.621V119.514H749.135V102.343H738.789V87.9178H735.159V63.1889H734.22V87.9178H730.589V102.343H720.243V119.514H701.053V164.621H697.064V246.513H667.311V339.865H697.064H726.819H772.313V164.621H768.472Z" fill="#95A9A7"/>
<path d="M879.61 216.435H786.009V217.871H790.243V351.457H875.373V217.871H879.61V216.435Z" fill="#95A9A7"/>
<path d="M452.79 360.987H369.802V249.708H452.79V360.987Z" fill="#95A9A7"/>
<path d="M357.301 360.987H214.576V306.721H357.301V360.987Z" fill="#95A9A7"/>
<path d="M322.409 185.483H291.077V318.743H322.409V185.483Z" fill="#95A9A7"/>
<path d="M299.623 222.403H297.994V149.934H299.623V222.403Z" fill="#95A9A7"/>
<path d="M304.912 227.899H303.285V155.43H304.912V227.899Z" fill="#95A9A7"/>
<path d="M312.643 195.098H293.493V177.239H312.643V195.098Z" fill="#95A9A7"/>
<path d="M406.236 360.987H351.708V269.628H406.236V360.987Z" fill="#95A9A7"/>
<path d="M466.242 360.987H568.598V172.948H466.242V360.987Z" fill="#95A9A7"/>
<path d="M476.296 197.805H558.541V166.486H476.296V197.805Z" fill="#95A9A7"/>
<path d="M576.532 179.082H458.308V176.883H576.532V179.082Z" fill="#95A9A7"/>
<path d="M495.925 360.987H447.697V266.022H495.925V360.987Z" fill="#95A9A7"/>
<path d="M157.607 360.987H102.265V262.415H157.607V360.987Z" fill="#95A9A7"/>
<path d="M120.171 360.987H230.446V235.627H120.171V360.987Z" fill="#95A9A7"/>
<path d="M233.295 235.628H113.737V230.819H233.295V235.628Z" fill="#95A9A7"/>
<path d="M173.516 243.183H125.053V217.766H173.516V243.183Z" fill="#95A9A7"/>
<path d="M197.485 233.223H189.346V217.767H197.485V233.223Z" fill="#95A9A7"/>
<path d="M214.576 233.223H205.623V217.767H214.576V233.223Z" fill="#95A9A7"/>
<path d="M129.937 360.987H72.153V322.864H129.937V360.987Z" fill="#95A9A7"/>
<path d="M77.6892 360.987H50.3281V306.721H77.6892V360.987Z" fill="#95A9A7"/>
<path d="M64.0092 360.987H17.2449V341.926H64.0092V360.987Z" fill="#95A9A7"/>
<path d="M558.541 360.987H1134.76V318.743H558.541V360.987Z" fill="#95A9A7"/>
<path d="M1064.02 234.007L1042.28 225.534C1045.37 219.805 1047.21 213.499 1047.51 206.864L1071.41 207.52C1071.01 216.8 1068.48 225.763 1064.02 234.007ZM1047.15 254.465C1046.6 254.926 1046.05 255.379 1045.49 255.826L1029.13 241.086C1034.43 236.837 1038.8 231.768 1041.95 226.122L1063.7 234.596C1059.66 241.887 1054.09 248.604 1047.15 254.465ZM1029.82 265.702L1018.39 247.924C1022.05 246.101 1025.46 243.953 1028.57 241.53L1044.93 256.271C1040.28 259.924 1035.21 263.078 1029.82 265.702ZM1070.92 332.371H905.977L947.32 268.055C950.028 269.316 952.813 270.447 955.663 271.448L952.749 277.441C952.086 277.264 951.381 277.168 950.651 277.168C946.826 277.168 943.727 279.786 943.727 283.012C943.727 286.241 946.826 288.857 950.651 288.857C954.475 288.857 957.575 286.241 957.575 283.012C957.575 280.631 955.886 278.585 953.466 277.674L956.376 271.694C965.48 274.808 975.232 276.58 985.293 276.887L985.056 283.016C981.306 283.089 978.292 285.675 978.292 288.857C978.292 292.085 981.392 294.703 985.216 294.703C989.042 294.703 992.142 292.085 992.142 288.857C992.142 285.803 989.365 283.297 985.826 283.036L986.062 276.907C986.856 276.925 987.652 276.936 988.449 276.936C998.135 276.936 1007.57 275.581 1016.46 272.981L1018.95 278.94C1016.59 279.874 1014.96 281.892 1014.96 284.235C1014.96 287.461 1018.06 290.079 1021.89 290.079C1025.71 290.079 1028.81 287.461 1028.81 284.235C1028.81 281.006 1025.71 278.389 1021.89 278.389C1021.11 278.389 1020.36 278.498 1019.67 278.699L1017.19 272.768C1021.46 271.481 1025.6 269.906 1029.58 268.055L1070.92 332.371ZM929.748 254.465C929.2 254.004 928.664 253.537 928.135 253.065L945.597 239.255C949.391 242.626 953.737 245.548 958.508 247.924L947.08 265.702C940.821 262.655 934.994 258.894 929.748 254.465ZM910.638 229.446L933.111 222.462C935.831 228.555 939.926 234.084 945.075 238.779L927.609 252.593C920.115 245.791 914.39 237.941 910.638 229.446ZM905.433 204.92C905.433 204.268 905.444 203.617 905.465 202.968L929.354 203.622C929.341 204.053 929.335 204.486 929.335 204.92C929.335 210.861 930.574 216.564 932.843 221.853L910.374 228.836C907.127 221.27 905.433 213.204 905.433 204.92ZM912.877 175.832L934.621 184.303C931.53 190.033 929.687 196.34 929.384 202.973L905.489 202.318C905.887 193.04 908.416 184.076 912.877 175.832ZM929.748 155.374C930.294 154.913 930.848 154.46 931.405 154.013L947.769 168.751C942.468 173.001 938.1 178.07 934.946 183.716L913.199 175.241C917.242 167.951 922.803 161.234 929.748 155.374ZM960.476 138.91L968.435 157.97C960.91 160.263 954.092 163.809 948.332 168.309L931.966 153.568C940.313 147.015 949.995 142.068 960.476 138.91ZM988.449 134.851C989.223 134.851 989.993 134.861 990.761 134.878L989.985 155.042C989.476 155.031 988.963 155.025 988.449 155.025C981.7 155.025 975.21 155.988 969.162 157.755L961.203 138.695C969.849 136.167 979.03 134.851 988.449 134.851ZM1019.65 139.946L1010.55 158.645C1004.39 156.544 997.725 155.293 990.755 155.066L991.53 134.898C1001.31 135.197 1010.79 136.92 1019.65 139.946ZM1047.15 155.374C1047.7 155.835 1048.23 156.301 1048.76 156.773L1031.3 170.584C1025.69 165.6 1018.88 161.591 1011.26 158.891L1020.36 140.192C1030.25 143.668 1039.34 148.784 1047.15 155.374ZM1066.26 180.394L1043.79 187.377C1041.07 181.283 1036.97 175.754 1031.82 171.058L1049.29 157.246C1056.78 164.048 1062.51 171.898 1066.26 180.394ZM1008.46 251.868C1011.45 250.959 1014.32 249.854 1017.05 248.57L1028.48 266.341C1024.61 268.144 1020.58 269.677 1016.42 270.93L1008.46 251.868ZM986.912 254.796C987.424 254.807 987.935 254.814 988.449 254.814C995.2 254.814 1001.69 253.852 1007.74 252.084L1015.7 271.144C1007.05 273.672 997.87 274.988 988.449 274.988C987.677 274.988 986.906 274.977 986.137 274.96L986.912 254.796ZM966.352 251.193C972.505 253.295 979.171 254.545 986.145 254.772L985.367 274.939C975.588 274.641 966.103 272.918 957.253 269.892L966.352 251.193ZM965.637 250.947L956.541 269.646C953.767 268.671 951.058 267.57 948.42 266.341L959.844 248.57C961.716 249.447 963.649 250.243 965.637 250.947ZM992.824 206.267C992.947 205.982 993.032 205.682 993.074 205.371L1046.36 206.833C1046.06 213.333 1044.26 219.512 1041.23 225.126L992.824 206.267ZM993.183 208.708L992.225 207.217C992.323 207.101 992.416 206.981 992.5 206.855L1040.9 225.716C1037.81 231.246 1033.53 236.213 1028.34 240.377L993.183 208.708ZM994.632 210.964L1027.78 240.819C1024.75 243.187 1021.41 245.284 1017.84 247.067L994.632 210.964ZM990.355 208.504C990.609 208.408 990.851 208.293 991.08 208.161L1016.51 247.714C1013.82 248.973 1011 250.058 1008.08 250.95L990.355 208.504ZM988.449 253.839C987.948 253.839 987.448 253.834 986.95 253.823L988.683 208.843C989.008 208.831 989.323 208.788 989.629 208.721L1007.35 251.165C1001.43 252.897 995.066 253.839 988.449 253.839ZM987.042 208.666C987.322 208.74 987.613 208.793 987.913 208.823L986.182 253.799C979.351 253.576 972.821 252.351 966.789 250.293L987.042 208.666ZM985.818 208.161C985.982 208.255 986.153 208.342 986.331 208.417L966.078 250.047C964.126 249.355 962.23 248.574 960.395 247.714L985.818 208.161ZM983.194 209.52L959.059 247.067C954.396 244.742 950.148 241.884 946.44 238.589L983.194 209.52ZM984.228 206.578C984.353 206.804 984.502 207.017 984.675 207.217L984.358 207.711L945.916 238.114C940.87 233.513 936.861 228.096 934.195 222.126L984.228 206.578ZM984.074 203.572C983.951 203.856 983.868 204.156 983.826 204.467L930.537 203.006C930.835 196.505 932.64 190.326 935.668 184.712L984.074 203.572ZM984.995 202.284C984.766 202.498 984.566 202.732 984.398 202.983L935.995 184.124C939.083 178.593 943.364 173.626 948.556 169.462L984.995 202.284ZM986.544 201.334C986.19 201.469 985.858 201.639 985.559 201.841L949.12 169.019C954.765 164.61 961.447 161.137 968.821 158.889L986.544 201.334ZM988.215 200.995C987.89 201.01 987.575 201.05 987.269 201.118L969.546 158.673C975.474 156.943 981.833 156 988.449 156C988.95 156 989.448 156.005 989.948 156.015L988.215 200.995ZM989.855 201.173C989.575 201.098 989.285 201.046 988.984 201.016L990.717 156.04C997.548 156.263 1004.08 157.488 1010.11 159.546L989.855 201.173ZM991.572 202.006C991.271 201.775 990.933 201.579 990.568 201.421L1010.82 159.792C1018.29 162.438 1024.96 166.367 1030.46 171.249L991.572 202.006ZM992.097 202.479L1030.98 171.725C1036.03 176.325 1040.04 181.742 1042.71 187.713L992.67 203.263C992.515 202.982 992.321 202.718 992.097 202.479ZM930.508 203.655L983.799 205.117C983.817 205.41 983.873 205.694 983.961 205.967L933.926 221.516C931.703 216.332 930.489 210.743 930.489 204.92C930.489 204.497 930.496 204.075 930.508 203.655ZM1046.39 206.183L993.099 204.722C993.082 204.429 993.026 204.144 992.936 203.871L1042.97 188.322C1045.2 193.507 1046.41 199.095 1046.41 204.92C1046.41 205.341 1046.4 205.764 1046.39 206.183ZM1071.47 204.92C1071.47 205.571 1071.45 206.221 1071.43 206.871L1047.54 206.216C1047.56 205.785 1047.56 205.352 1047.56 204.92C1047.56 198.977 1046.32 193.275 1044.06 187.985L1066.52 181.003C1069.77 188.568 1071.47 196.633 1071.47 204.92ZM1088.75 201.803C1085.12 201.803 1082.14 204.159 1081.85 207.156L1073.74 206.935C1073.76 206.264 1073.77 205.593 1073.77 204.92C1073.77 196.4 1072.03 188.108 1068.69 180.33L1075.47 178.224C1076.53 180.296 1078.98 181.746 1081.82 181.746C1085.65 181.746 1088.75 179.13 1088.75 175.902C1088.75 172.675 1085.65 170.057 1081.82 170.057C1078 170.057 1074.9 172.675 1074.9 175.902C1074.9 176.498 1075 177.073 1075.2 177.615L1068.43 179.719C1064.57 170.981 1058.68 162.909 1050.97 155.915L1056.28 151.721C1057.52 152.724 1059.2 153.34 1061.06 153.34C1064.88 153.34 1067.98 150.723 1067.98 147.496C1067.98 144.269 1064.88 141.651 1061.06 141.651C1057.23 141.651 1054.13 144.269 1054.13 147.496C1054.13 148.925 1054.74 150.233 1055.75 151.248L1050.45 155.442C1049.9 154.954 1049.35 154.473 1048.78 153.995C1040.75 147.222 1031.41 141.963 1021.24 138.389L1024.15 132.397C1024.81 132.574 1025.52 132.67 1026.25 132.67C1030.07 132.67 1033.17 130.053 1033.17 126.826C1033.17 123.598 1030.07 120.98 1026.25 120.98C1022.42 120.98 1019.32 123.598 1019.32 126.826C1019.32 129.207 1021.01 131.255 1023.43 132.164L1020.52 138.143C1011.42 135.029 1001.66 133.258 991.605 132.951L991.921 124.761L992.142 124.765C995.966 124.765 999.066 122.148 999.066 118.921C999.066 115.692 995.966 113.075 992.142 113.075C988.316 113.075 985.216 115.692 985.216 118.921C985.216 121.864 987.797 124.3 991.154 124.704L990.837 132.932C990.042 132.913 989.247 132.902 988.449 132.902C978.765 132.902 969.325 134.256 960.435 136.857L957.644 130.171C960.161 129.296 961.935 127.206 961.935 124.765C961.935 121.537 958.835 118.921 955.01 118.921C951.186 118.921 948.086 121.537 948.086 124.765C948.086 127.993 951.186 130.61 955.01 130.61C955.673 130.61 956.31 130.53 956.917 130.383L959.708 137.072C948.928 140.318 938.971 145.407 930.388 152.147L925.327 147.589C926.46 146.549 927.152 145.161 927.152 143.637C927.152 140.409 924.052 137.792 920.227 137.792C916.403 137.792 913.303 140.409 913.303 143.637C913.303 146.865 916.403 149.481 920.227 149.481C921.969 149.481 923.559 148.938 924.778 148.042L929.828 152.591C929.251 153.052 928.68 153.52 928.116 153.995C920.976 160.022 915.258 166.93 911.104 174.426L904.672 171.921C904.906 171.334 905.034 170.708 905.034 170.057C905.034 166.83 901.934 164.213 898.108 164.213C894.284 164.213 891.184 166.83 891.184 170.057C891.184 173.286 894.284 175.902 898.108 175.902C900.89 175.902 903.285 174.518 904.387 172.524L910.779 175.014C906.19 183.493 903.589 192.711 903.181 202.256L894.928 202.029C894.824 198.876 891.767 196.347 888.009 196.347C884.184 196.347 881.083 198.963 881.083 202.191C881.083 205.42 884.184 208.036 888.009 208.036C891.638 208.036 894.614 205.678 894.906 202.677L903.159 202.904C903.136 203.575 903.125 204.247 903.125 204.92C903.125 213.438 904.867 221.731 908.206 229.509L901.431 231.615C900.366 229.542 897.923 228.092 895.075 228.092C891.25 228.092 888.151 230.708 888.151 233.936C888.151 237.164 891.25 239.781 895.075 239.781C898.899 239.781 901.999 237.164 901.999 233.936C901.999 233.341 901.894 232.765 901.698 232.224L908.47 230.119C912.329 238.856 918.216 246.93 925.926 253.925L920.622 258.117C919.381 257.116 917.697 256.498 915.842 256.498C912.019 256.498 908.917 259.116 908.917 262.343C908.917 265.571 912.019 268.187 915.842 268.187C919.666 268.187 922.766 265.571 922.766 262.343C922.766 260.915 922.158 259.606 921.149 258.59L926.452 254.398C926.997 254.884 927.551 255.367 928.116 255.842C933.522 260.405 939.527 264.28 945.98 267.416L904.227 332.371H896.733V334.228H893.063V337.915H1083.84V334.228H1080.17V332.371H1072.67L1030.92 267.416C1036.48 264.712 1041.71 261.461 1046.51 257.693L1053.28 263.787C1051.82 264.858 1050.9 266.432 1050.9 268.187C1050.9 271.416 1054.01 274.033 1057.83 274.033C1061.65 274.033 1064.75 271.416 1064.75 268.187C1064.75 264.96 1061.65 262.343 1057.83 262.343C1056.36 262.343 1055 262.728 1053.89 263.385L1047.07 257.247C1047.65 256.786 1048.22 256.318 1048.78 255.842C1055.92 249.816 1061.64 242.91 1065.8 235.414L1073.33 238.35C1073.19 238.808 1073.12 239.286 1073.12 239.781C1073.12 243.008 1076.22 245.625 1080.05 245.625C1083.87 245.625 1086.97 243.008 1086.97 239.781C1086.97 236.552 1083.87 233.936 1080.05 233.936C1077.08 233.936 1074.55 235.511 1073.56 237.724L1066.12 234.823C1070.71 226.345 1073.31 217.127 1073.72 207.583L1081.83 207.806C1081.93 210.961 1084.99 213.492 1088.75 213.492C1092.57 213.492 1095.67 210.876 1095.67 207.647C1095.67 204.42 1092.57 201.803 1088.75 201.803Z" fill="#95A9A7"/>
<path d="M1105.46 360.987H1194.44V250.949H1105.46V360.987Z" fill="#95A9A7"/>
<path d="M1270.4 360.368H1181.42V293.732H1270.4V360.368Z" fill="#95A9A7"/>
<path d="M836.35 339.865H886.267V283.946H836.35V339.865Z" fill="#95A9A7"/>
<path d="M1149.95 360.987H1212.89V146.302H1149.95V360.987Z" fill="#95A9A7"/>
<path d="M1316.52 360.987H1233.5V235.627H1296.44L1316.52 360.987Z" fill="#95A9A7"/>
<path d="M1352.87 360.987H1280.17V332.37H1352.87V360.987Z" fill="#95A9A7"/>
<path d="M1198.78 159.791H1196.61V101.451H1198.78V159.791Z" fill="#95A9A7"/>
<path d="M1206.11 172.311H1203.94V113.971H1206.11V172.311Z" fill="#95A9A7"/>
<path d="M1192.14 180.365H1189.97V122.025H1192.14V180.365Z" fill="#95A9A7"/>
<path d="M1266.46 245.244H1236.76V225.495H1266.46V245.244Z" fill="#95A9A7"/>
<path d="M1263.21 229.554H1240.02V218.454H1263.21V229.554Z" fill="#95A9A7"/>
<path d="M1283.96 239.255H1278.27V231.28H1283.96V239.255Z" fill="#95A9A7"/>
<path d="M1294.12 239.255H1285.98V224.004H1294.12V239.255Z" fill="#95A9A7"/>
<path d="M836.099 399.999H911.551V194.73H836.099V399.999Z" fill="#658280"/>
<path d="M917.186 198.026H830.462V195.946H917.186V198.026Z" fill="#658280"/>
<path d="M914.842 226.854H832.808V224.78H914.842V226.854Z" fill="#658280"/>
<path d="M914.842 254.776H832.808V252.703H914.842V254.776Z" fill="#658280"/>
<path d="M914.842 282.701H832.808V280.628H914.842V282.701Z" fill="#658280"/>
<path d="M914.842 310.624H832.808V308.551H914.842V310.624Z" fill="#658280"/>
<path d="M914.842 338.549H832.808V336.475H914.842V338.549Z" fill="#658280"/>
<path d="M914.842 366.473H832.808V364.4H914.842V366.473Z" fill="#658280"/>
<path d="M920.054 195.945H827.595V190.274H920.054V195.945Z" fill="#658280"/>
<mask id="mask0_6952_42364" style="mask-type:luminance" maskUnits="userSpaceOnUse" x="842" y="204" width="9" height="18">
<path d="M850.727 221.167H842.889V204.769H850.727V221.167ZM842.889 204.769V218.454H846.809V204.769H842.889Z" fill="white"/>
</mask>
<g mask="url(#mask0_6952_42364)">
<path d="M842.889 221.167H850.727V204.768H842.889V221.167Z" fill="#658280"/>
</g>
<path d="M860.426 221.168H868.265V204.77H860.426V221.168Z" fill="#658280"/>
<path d="M877.96 221.168H885.799V204.77H877.96V221.168Z" fill="#658280"/>
<path d="M895.497 221.168H903.335V204.77H895.497V221.168Z" fill="#658280"/>
<path d="M842.89 247.978H850.728V231.58H842.89V247.978Z" fill="#658280"/>
<path d="M868.266 247.978H860.426V231.58H868.266V247.978ZM862.386 232.937V246.622H866.304V232.937H862.386Z" fill="#658280"/>
<path d="M877.96 247.978H885.799V231.58H877.96V247.978Z" fill="#658280"/>
<path d="M895.497 247.978H903.335V231.58H895.497V247.978Z" fill="#658280"/>
<path d="M842.89 275.901H850.728V259.502H842.89V275.901Z" fill="#658280"/>
<path d="M860.426 275.901H868.265V259.502H860.426V275.901Z" fill="#658280"/>
<path d="M877.96 275.901H885.799V259.502H877.96V275.901Z" fill="#658280"/>
<path d="M903.335 275.901H895.497V259.503H903.335V261.803H901.375V275.488H903.335V275.901Z" fill="#658280"/>
<path d="M842.89 303.825H850.728V287.427H842.89V303.825Z" fill="#658280"/>
<path d="M868.266 303.825H866.304V290.671H862.386V303.825H860.426V287.427H868.266V303.825Z" fill="#658280"/>
<path d="M881.882 303.825H877.96V287.427H885.8V290.671H881.882V303.825Z" fill="#658280"/>
<path d="M895.497 303.825H903.335V287.427H895.497V303.825Z" fill="#658280"/>
<path d="M850.728 331.748H842.89V315.35H850.728V331.748ZM842.89 316.893V330.578H846.81V316.893H842.89Z" fill="#658280"/>
<path d="M860.426 331.748H868.265V315.35H860.426V331.748Z" fill="#658280"/>
<path d="M877.96 331.748H885.799V315.35H877.96V331.748Z" fill="#658280"/>
<path d="M895.497 331.748H903.335V315.35H895.497V331.748Z" fill="#658280"/>
<path d="M842.89 359.673H850.728V343.275H842.89V359.673Z" fill="#658280"/>
<path d="M860.426 359.673H868.265V343.275H860.426V359.673Z" fill="#658280"/>
<path d="M881.882 359.673H877.96V343.275H885.8V346.14H881.882V359.673Z" fill="#658280"/>
<path d="M903.335 359.673H895.497V343.275H903.335V359.673Z" fill="#658280"/>
<path d="M850.729 387.598H842.89V371.199H850.729V387.598Z" fill="#658280"/>
<path d="M860.426 387.598H868.265V371.2H860.426V387.598Z" fill="#658280"/>
<path d="M885.8 387.598H877.96V371.199H885.8V387.598Z" fill="#658280"/>
<path d="M895.497 387.598H903.335V371.2H895.497V387.598Z" fill="#658280"/>
<path d="M866.523 193.11H840.861V182.45H866.523V193.11Z" fill="#658280"/>
<path d="M868.265 183.968H839.12V182.146H868.265V183.968Z" fill="#658280"/>
<path d="M727.958 399.999H627.451V204.966L727.958 184.216V399.999Z" fill="#658280"/>
<path d="M631.866 399.999H623.035V201.533H631.866V399.999Z" fill="#658280"/>
<path d="M656.993 399.999H648.162V195.94H656.993V399.999Z" fill="#658280"/>
<path d="M682.12 399.999H673.289V190.132H682.12V399.999Z" fill="#658280"/>
<path d="M707.246 399.999H698.415V185.398H707.246V399.999Z" fill="#658280"/>
<path d="M732.373 399.999H723.542V180.365H732.373V399.999Z" fill="#658280"/>
<path d="M645.875 233.26H634.152V218.188H637.084V226.709H642.945V218.188H645.875V233.26Z" fill="#658280"/>
<path d="M671 233.26H659.279V218.188H662.209V226.709H668.07V218.188H671V233.26Z" fill="#658280"/>
<path d="M684.407 233.26H696.13V218.188H684.407V233.26Z" fill="#658280"/>
<path d="M721.255 233.26H709.534V218.188H712.464V226.709H718.325V218.188H721.255V233.26Z" fill="#658280"/>
<path d="M634.152 259.504H645.875V244.432H634.152V259.504Z" fill="#658280"/>
<path d="M659.279 259.504H671V244.432H659.279V259.504Z" fill="#658280"/>
<path d="M696.13 259.504H684.407V244.432H687.337V250.704H693.198V244.432H696.13V259.504Z" fill="#658280"/>
<path d="M721.255 259.504H709.534V244.432H712.464V250.704H718.325V244.432H721.255V259.504Z" fill="#658280"/>
<path d="M645.875 285.75H634.152V270.678H637.084V274.703H642.945V270.678H645.875V285.75Z" fill="#658280"/>
<path d="M671 285.75H659.279V270.678H662.209V274.703H668.07V270.678H671V285.75Z" fill="#658280"/>
<path d="M696.13 285.75H684.407V270.678H687.337V274.703H693.198V270.678H696.13V285.75Z" fill="#658280"/>
<path d="M709.534 285.75H721.255V270.678H709.534V285.75Z" fill="#658280"/>
<path d="M645.875 311.996H642.945V308.779H637.084V311.996H634.152V296.922H637.084V298.701H642.945V296.922H645.875V311.996Z" fill="#658280"/>
<path d="M659.279 311.996H671V296.922H659.279V311.996Z" fill="#658280"/>
<path d="M696.13 311.996H693.198V308.779H687.337V311.996H684.407V296.922H687.337V298.701H693.198V296.922H696.13V311.996Z" fill="#658280"/>
<path d="M721.255 311.996H718.325V308.779H712.464V311.996H709.534V296.922H712.464V298.701H718.325V296.922H721.255V311.996Z" fill="#658280"/>
<path d="M645.875 338.238H642.945V332.775H637.084V338.238H634.152V323.167H645.875V338.238Z" fill="#658280"/>
<path d="M671 338.238H668.07V332.775H662.209V338.238H659.279V323.167H671V338.238Z" fill="#658280"/>
<path d="M684.407 338.238H696.13V323.167H684.407V338.238Z" fill="#658280"/>
<path d="M721.255 338.238H718.325V332.775H712.464V338.238H709.534V323.167H721.255V338.238Z" fill="#658280"/>
<path d="M645.875 364.484H634.153V349.413H645.875V364.484Z" fill="#658280"/>
<path d="M671 364.484H659.279V349.413H671V364.484Z" fill="#658280"/>
<path d="M684.407 364.484H696.13V349.411H684.407V364.484Z" fill="#658280"/>
<path d="M709.534 364.484H721.255V349.411H709.534V364.484Z" fill="#658280"/>
<path d="M634.152 390.728H645.875V375.655H634.152V390.728Z" fill="#658280"/>
<path d="M671 390.728H659.279V375.655H671V390.728Z" fill="#658280"/>
<path d="M684.407 390.728H696.13V375.655H684.407V390.728Z" fill="#658280"/>
<path d="M721.255 390.728H709.534V375.655H721.255V390.728Z" fill="#658280"/>
<path d="M340.739 214.309V216.333H338.35V222.104H380.404V399.999H311.392V231.386V222.104V216.333H308.888V214.309H340.739Z" fill="#658280"/>
<path d="M517.419 399.999H458.308V295.112H517.419V399.999Z" fill="#658280"/>
<path d="M200.666 399.999H248.716V271.068H200.666V399.999Z" fill="#658280"/>
<path d="M291.562 399.999H239.199V297.933H291.562V399.999Z" fill="#658280"/>
<path d="M217.953 281.323H239.199V265.894H217.953V281.323Z" fill="#658280"/>
<path d="M298.611 300.024H242.792V296.251H298.611V300.024Z" fill="#658280"/>
<path d="M344.646 399.999H285.938V341.71H344.646V399.999Z" fill="#658280"/>
<path d="M143.952 399.999H96.1968V294.299H143.952V399.999Z" fill="#658280"/>
<path d="M117.58 399.999H54.7555V346.973H117.58V399.999Z" fill="#658280"/>
<path d="M24.8737 399.999H-14.4227V338.306H24.8737V399.999Z" fill="#658280"/>
<path d="M110.124 399.999H17.2449V380.675H110.124V399.999Z" fill="#658280"/>
<path d="M217.953 399.999H143.951V360.988H217.953V399.999Z" fill="#658280"/>
<path d="M476.298 399.999H361.027V383.193H476.298V399.999Z" fill="#658280"/>
<path d="M680.669 399.999H565.4V383.193H680.669V399.999Z" fill="#658280"/>
<path d="M471.81 333.855H427.996L409.469 391.597H471.81V333.855Z" fill="#658280"/>
<path d="M493.277 313.895H492.059V249.84H493.277V313.895Z" fill="#658280"/>
<path d="M499.79 309.311H498.164V271.516H499.79V309.311Z" fill="#658280"/>
<path d="M511.608 296.922H489.441V278.213H511.608V296.922Z" fill="#658280"/>
<path d="M515.057 278.435H485.699V276.759H515.057V278.435Z" fill="#658280"/>
<path d="M578.291 399.999H506.668V345.9H578.291V399.999Z" fill="#658280"/>
<path d="M610.61 286.344H564.596V390.728H610.61V286.344Z" fill="#658280"/>
<path d="M817.828 399.999H744.31V305.969H817.828V399.999Z" fill="#658280"/>
<path d="M805.077 399.999H721.255V365.351H805.077V399.999Z" fill="#658280"/>
<path d="M813.758 399.999H868.265V387.597H813.758V399.999Z" fill="#658280"/>
<path d="M986.331 365.351H897.71V399.999H986.331V365.351Z" fill="#658280"/>
<path d="M933.018 399.999H1043.29V274.638H933.018V399.999Z" fill="#658280"/>
<path d="M930.169 274.638H1049.73V269.829H930.169V274.638Z" fill="#658280"/>
<path d="M989.948 282.194H1038.41V256.779H989.948V282.194Z" fill="#658280"/>
<path d="M965.979 272.234H974.116V256.778H965.979V272.234Z" fill="#658280"/>
<path d="M948.887 272.234H957.839V256.778H948.887V272.234Z" fill="#658280"/>
<path d="M1119.1 399.999H1206.39V216.916H1119.1V399.999Z" fill="#658280"/>
<path d="M1116.62 218.943H1208.87V213.766H1116.62V218.943Z" fill="#658280"/>
<path d="M1122.03 231.74H1203.46V207.142H1122.03V231.74Z" fill="#658280"/>
<path d="M1164.98 223.953H1197.22V197.08H1164.98V223.953Z" fill="#658280"/>
<path d="M1178.57 204.654H1197.22V190.507H1183.84L1178.57 204.654Z" fill="#658280"/>
<path d="M1189.7 210.275H1187.9V178.764H1189.7V210.275Z" fill="#658280"/>
<path d="M1187.17 177.131C1187.17 178.034 1187.9 178.765 1188.8 178.765C1189.7 178.765 1190.42 178.034 1190.42 177.131C1190.42 176.23 1189.7 175.498 1188.8 175.498C1187.9 175.498 1187.17 176.23 1187.17 177.131Z" fill="#658280"/>
<path d="M1233.5 399.999H1194.44V324.417H1233.5V399.999Z" fill="#658280"/>
<path d="M1083.17 287.568H1127.72V399.999H1083.17V287.568Z" fill="#658280"/>
<path d="M1105.46 399.999H1042.71V339.865L1095.67 359.673L1105.46 399.999Z" fill="#658280"/>
<path d="M1316.52 399.999H1220.68V367.34H1316.52V399.999Z" fill="#658280"/>
<path d="M1281.11 399.999H1336.79V269.629H1281.11V399.999Z" fill="#658280"/>
<path d="M1416 399.999H1323.77V375.656H1416V399.999Z" fill="#658280"/>
<path d="M1339.33 271.515H1278.27V267.242H1339.33V271.515Z" fill="#658280"/>
<path d="M1328.11 248.846H1329.32V275.119H1328.11V248.846Z" fill="#658280"/>
<path d="M1321.18 273.248H1319.97V252.172H1321.18V273.248Z" fill="#658280"/>
<path d="M1357.4 318.743H1332.58V378.473H1367.98L1357.4 318.743Z" fill="#658280"/>
<path d="M205.623 280.666H209.261V277.597H205.623V280.666Z" fill="#B5C3C2"/>
<path d="M212.931 280.666H216.568V277.597H212.931V280.666Z" fill="#B5C3C2"/>
<path d="M205.623 287.878H209.261V284.809H205.623V287.878Z" fill="#B5C3C2"/>
<path d="M212.931 287.878H216.568V284.809H212.931V287.878Z" fill="#B5C3C2"/>
<path d="M205.623 294.851H209.261V291.782H205.623V294.851Z" fill="#B5C3C2"/>
<path d="M221.054 280.666H224.691V277.597H221.054V280.666Z" fill="#B5C3C2"/>
<path d="M471.809 196.987H474.291V185.398H471.809V196.987Z" fill="#CAD4D3"/>
<path d="M480.359 196.987H482.841V185.398H480.359V196.987Z" fill="#CAD4D3"/>
<path d="M488.908 196.987H491.388V185.398H488.908V196.987Z" fill="#CAD4D3"/>
<path d="M497.458 196.987H499.938V185.398H497.458V196.987Z" fill="#CAD4D3"/>
<path d="M506.007 196.987H508.487V185.398H506.007V196.987Z" fill="#CAD4D3"/>
<path d="M514.556 196.987H517.036V185.398H514.556V196.987Z" fill="#CAD4D3"/>
<path d="M523.104 196.987H525.585V185.398H523.104V196.987Z" fill="#CAD4D3"/>
<path d="M531.653 196.987H534.135V185.398H531.653V196.987Z" fill="#CAD4D3"/>
<path d="M540.202 196.987H542.682V185.398H540.202V196.987Z" fill="#CAD4D3"/>
<path d="M548.751 196.987H551.231V185.398H548.751V196.987Z" fill="#CAD4D3"/>
<path d="M558.541 196.987H559.779V185.398H558.541V196.987Z" fill="#CAD4D3"/>
<path d="M557.3 196.987H558.539V185.398H557.3V196.987Z" fill="#CAD4D3"/>
<path d="M471.809 213.122H474.291V201.533H471.809V213.122Z" fill="#CAD4D3"/>
<path d="M480.359 213.122H482.841V201.533H480.359V213.122Z" fill="#CAD4D3"/>
<path d="M488.908 213.122H491.388V201.533H488.908V213.122Z" fill="#CAD4D3"/>
<path d="M497.458 213.122H499.938V201.533H497.458V213.122Z" fill="#CAD4D3"/>
<path d="M506.007 213.122H508.487V201.533H506.007V213.122Z" fill="#CAD4D3"/>
<path d="M514.556 213.122H517.036V201.533H514.556V213.122Z" fill="#CAD4D3"/>
<path d="M523.104 213.122H525.585V201.533H523.104V213.122Z" fill="#CAD4D3"/>
<path d="M531.653 213.122H534.135V201.533H531.653V213.122Z" fill="#CAD4D3"/>
<path d="M540.202 213.122H542.682V201.533H540.202V213.122Z" fill="#CAD4D3"/>
<path d="M548.751 213.122H551.231V201.533H548.751V213.122Z" fill="#CAD4D3"/>
<path d="M557.3 213.122H559.781V201.533H557.3V213.122Z" fill="#CAD4D3"/>
<path d="M471.809 229.255H474.291V217.666H471.809V229.255Z" fill="#CAD4D3"/>
<path d="M480.359 229.255H482.841V217.666H480.359V229.255Z" fill="#CAD4D3"/>
<path d="M488.908 229.255H491.388V217.666H488.908V229.255Z" fill="#CAD4D3"/>
<path d="M497.458 229.255H499.938V217.666H497.458V229.255Z" fill="#CAD4D3"/>
<path d="M506.007 229.255H508.487V217.666H506.007V229.255Z" fill="#CAD4D3"/>
<path d="M514.556 229.255H517.036V217.666H514.556V229.255Z" fill="#CAD4D3"/>
<path d="M523.104 229.255H525.585V217.666H523.104V229.255Z" fill="#CAD4D3"/>
<path d="M531.653 229.255H534.135V217.666H531.653V229.255Z" fill="#CAD4D3"/>
<path d="M540.202 229.255H542.682V217.666H540.202V229.255Z" fill="#CAD4D3"/>
<path d="M548.751 229.255H551.231V217.666H548.751V229.255Z" fill="#CAD4D3"/>
<path d="M557.3 229.255H559.781V217.666H557.3V229.255Z" fill="#CAD4D3"/>
<path d="M497.458 245.39H499.938V233.801H497.458V245.39Z" fill="#CAD4D3"/>
<path d="M506.007 245.39H508.487V233.801H506.007V245.39Z" fill="#CAD4D3"/>
<path d="M514.556 245.39H517.036V233.801H514.556V245.39Z" fill="#CAD4D3"/>
<path d="M523.104 245.39H525.585V233.801H523.104V245.39Z" fill="#CAD4D3"/>
<path d="M531.653 245.39H534.135V233.801H531.653V245.39Z" fill="#CAD4D3"/>
<path d="M540.202 245.39H542.682V233.801H540.202V245.39Z" fill="#CAD4D3"/>
<path d="M548.751 245.39H551.231V233.801H548.751V245.39Z" fill="#CAD4D3"/>
<path d="M557.3 245.39H559.781V233.801H557.3V245.39Z" fill="#CAD4D3"/>
<path d="M506.007 262.42H508.487V250.831H506.007V262.42Z" fill="#CAD4D3"/>
<path d="M514.556 262.42H517.036V250.831H514.556V262.42Z" fill="#CAD4D3"/>
<path d="M523.104 262.42H525.585V250.831H523.104V262.42Z" fill="#CAD4D3"/>
<path d="M531.653 262.42H534.135V250.831H531.653V262.42Z" fill="#CAD4D3"/>
<path d="M540.202 262.42H542.682V250.831H540.202V262.42Z" fill="#CAD4D3"/>
<path d="M548.751 262.42H551.231V250.831H548.751V262.42Z" fill="#CAD4D3"/>
<path d="M557.3 262.42H559.781V250.831H557.3V262.42Z" fill="#CAD4D3"/>
<path d="M637.084 218.186H642.945V214.161H637.084V218.186Z" fill="#98ABAA"/>
<path d="M637.084 226.709H642.945V218.188H637.084V226.709Z" fill="#98ABAA"/>
<path d="M637.084 244.432H642.945V238.16H637.084V244.432Z" fill="#98ABAA"/>
<path d="M637.084 250.704H642.945V244.432H637.084V250.704Z" fill="#98ABAA"/>
<path d="M637.084 270.678H642.945V262.158H637.084V270.678Z" fill="#98ABAA"/>
<path d="M637.084 274.703H642.945V270.678H637.084V274.703Z" fill="#98ABAA"/>
<path d="M637.084 296.922H642.945V286.153H637.084V296.922Z" fill="#98ABAA"/>
<path d="M637.084 298.7H642.945V296.921H637.084V298.7Z" fill="#98ABAA"/>
<path d="M637.084 321.323H642.945V311.994H637.084V321.323Z" fill="#98ABAA"/>
<path d="M637.084 311.996H642.945V308.779H637.084V311.996Z" fill="#98ABAA"/>
<path d="M637.084 345.321H642.945V338.239H637.084V345.321Z" fill="#98ABAA"/>
<path d="M637.084 338.238H642.945V332.775H637.084V338.238Z" fill="#98ABAA"/>
<path d="M662.209 218.186H668.07V214.161H662.209V218.186Z" fill="#98ABAA"/>
<path d="M662.209 226.709H668.07V218.188H662.209V226.709Z" fill="#98ABAA"/>
<path d="M662.209 244.432H668.07V238.16H662.209V244.432Z" fill="#98ABAA"/>
<path d="M662.209 250.704H668.07V244.432H662.209V250.704Z" fill="#98ABAA"/>
<path d="M662.209 270.678H668.07V262.158H662.209V270.678Z" fill="#98ABAA"/>
<path d="M662.209 274.703H668.07V270.678H662.209V274.703Z" fill="#98ABAA"/>
<path d="M662.209 296.922H668.07V286.153H662.209V296.922Z" fill="#98ABAA"/>
<path d="M662.209 298.7H668.07V296.921H662.209V298.7Z" fill="#98ABAA"/>
<path d="M662.209 321.323H668.07V311.994H662.209V321.323Z" fill="#98ABAA"/>
<path d="M662.209 311.996H668.07V308.779H662.209V311.996Z" fill="#98ABAA"/>
<path d="M662.209 345.321H668.07V338.239H662.209V345.321Z" fill="#98ABAA"/>
<path d="M662.209 338.238H668.07V332.775H662.209V338.238Z" fill="#98ABAA"/>
<path d="M687.337 218.186H693.198V214.161H687.337V218.186Z" fill="#98ABAA"/>
<path d="M687.337 226.709H693.198V218.188H687.337V226.709Z" fill="#98ABAA"/>
<path d="M687.337 244.432H693.198V238.16H687.337V244.432Z" fill="#98ABAA"/>
<path d="M687.337 250.704H693.198V244.432H687.337V250.704Z" fill="#98ABAA"/>
<path d="M687.337 270.678H693.198V262.158H687.337V270.678Z" fill="#98ABAA"/>
<path d="M687.337 274.703H693.198V270.678H687.337V274.703Z" fill="#98ABAA"/>
<path d="M687.337 296.922H693.198V286.153H687.337V296.922Z" fill="#98ABAA"/>
<path d="M687.337 298.7H693.198V296.921H687.337V298.7Z" fill="#98ABAA"/>
<path d="M687.337 321.323H693.198V311.994H687.337V321.323Z" fill="#98ABAA"/>
<path d="M687.337 311.996H693.198V308.779H687.337V311.996Z" fill="#98ABAA"/>
<path d="M687.337 345.321H693.198V338.239H687.337V345.321Z" fill="#98ABAA"/>
<path d="M687.337 338.238H693.198V332.775H687.337V338.238Z" fill="#98ABAA"/>
<path d="M712.464 218.186H718.325V214.161H712.464V218.186Z" fill="#98ABAA"/>
<path d="M712.464 226.709H718.325V218.188H712.464V226.709Z" fill="#98ABAA"/>
<path d="M712.464 244.432H718.325V238.16H712.464V244.432Z" fill="#98ABAA"/>
<path d="M712.464 250.704H718.325V244.432H712.464V250.704Z" fill="#98ABAA"/>
<path d="M712.464 270.678H718.325V262.158H712.464V270.678Z" fill="#98ABAA"/>
<path d="M712.464 274.703H718.325V270.678H712.464V274.703Z" fill="#98ABAA"/>
<path d="M712.464 296.922H718.325V286.153H712.464V296.922Z" fill="#98ABAA"/>
<path d="M712.464 298.7H718.325V296.921H712.464V298.7Z" fill="#98ABAA"/>
<path d="M712.464 321.323H718.325V311.994H712.464V321.323Z" fill="#98ABAA"/>
<path d="M712.464 311.996H718.325V308.779H712.464V311.996Z" fill="#98ABAA"/>
<path d="M712.464 345.321H718.325V338.239H712.464V345.321Z" fill="#98ABAA"/>
<path d="M712.464 338.238H718.325V332.775H712.464V338.238Z" fill="#98ABAA"/>
<path d="M542.682 50.1866H547.558V39.207H542.682V50.1866Z" fill="#DAE1E1"/>
<path d="M554.716 50.1866H559.592V39.207H554.716V50.1866Z" fill="#DAE1E1"/>
<path d="M566.746 50.1866H571.622V39.207H566.746V50.1866Z" fill="#DAE1E1"/>
<path d="M578.778 50.1866H583.654V39.207H578.778V50.1866Z" fill="#DAE1E1"/>
<path d="M542.682 68.4718H547.558V57.4922H542.682V68.4718Z" fill="#DAE1E1"/>
<path d="M554.716 68.4718H559.592V57.4922H554.716V68.4718Z" fill="#DAE1E1"/>
<path d="M566.746 68.4718H571.622V57.4922H566.746V68.4718Z" fill="#DAE1E1"/>
<path d="M578.778 68.4718H583.654V57.4922H578.778V68.4718Z" fill="#DAE1E1"/>
<path d="M542.682 86.759H547.558V75.7789H542.682V86.759Z" fill="#DAE1E1"/>
<path d="M554.716 86.759H559.592V75.7789H554.716V86.759Z" fill="#DAE1E1"/>
<path d="M592.426 50.1866H597.302V39.207H592.426V50.1866Z" fill="#DAE1E1"/>
<path d="M217.953 160.504H221.054V153.511H217.953V160.504Z" fill="#D3DBDA"/>
<path d="M217.953 153.511H221.054V150.44H217.953V153.511Z" fill="#D3DBDA"/>
<path d="M228.896 160.504H231.996V153.511H228.896V160.504Z" fill="#D3DBDA"/>
<path d="M228.896 153.511H231.996V150.44H228.896V153.511Z" fill="#D3DBDA"/>
<path d="M241.695 160.504H244.795V153.511H241.695V160.504Z" fill="#D3DBDA"/>
<path d="M241.695 153.511H244.795V150.44H241.695V153.511Z" fill="#D3DBDA"/>
<path d="M252.637 160.504H255.739V153.511H252.637V160.504Z" fill="#D3DBDA"/>
<path d="M252.637 153.511H255.739V150.44H252.637V153.511Z" fill="#D3DBDA"/>
<path d="M193.644 160.504H196.744V153.511H193.644V160.504Z" fill="#D3DBDA"/>
<path d="M193.644 153.511H196.744V150.44H193.644V153.511Z" fill="#D3DBDA"/>
<path d="M204.586 160.504H207.687V153.511H204.586V160.504Z" fill="#D3DBDA"/>
<path d="M204.586 153.511H207.687V150.44H204.586V153.511Z" fill="#D3DBDA"/>
<path d="M217.953 177.981H221.054V167.916H217.953V177.981Z" fill="#D3DBDA"/>
<path d="M228.896 177.981H231.996V167.916H228.896V177.981Z" fill="#D3DBDA"/>
<path d="M241.695 177.981H244.795V167.916H241.695V177.981Z" fill="#D3DBDA"/>
<path d="M252.637 177.981H255.739V167.916H252.637V177.981Z" fill="#D3DBDA"/>
<path d="M193.644 177.981H196.744V167.916H193.644V177.981Z" fill="#D3DBDA"/>
<path d="M204.586 177.981H207.687V167.916H204.586V177.981Z" fill="#D3DBDA"/>
<path d="M217.953 195.458H221.054V185.394H217.953V195.458Z" fill="#D3DBDA"/>
<path d="M228.896 195.458H231.996V185.394H228.896V195.458Z" fill="#D3DBDA"/>
<path d="M241.695 195.458H244.795V185.394H241.695V195.458Z" fill="#D3DBDA"/>
<path d="M252.637 195.458H255.739V185.394H252.637V195.458Z" fill="#D3DBDA"/>
<path d="M193.644 195.458H196.744V185.394H193.644V195.458Z" fill="#D3DBDA"/>
<path d="M204.586 195.458H207.687V185.394H204.586V195.458Z" fill="#D3DBDA"/>
<path d="M796.653 243.183H801.457V227.574H796.653V243.183Z" fill="#CAD4D3"/>
<path d="M811.356 243.183H816.16V227.574H811.356V243.183Z" fill="#CAD4D3"/>
<path d="M825.191 243.183H829.996V227.574H825.191V243.183Z" fill="#CAD4D3"/>
<path d="M1127.72 239.598H1131.36V231.741H1127.72V239.598Z" fill="#BAC7C6"/>
<path d="M1127.72 231.74H1131.36V230.818H1127.72V231.74Z" fill="#BAC7C6"/>
<path d="M1139.15 239.598H1142.8V231.741H1139.15V239.598Z" fill="#BAC7C6"/>
<path d="M1139.15 231.74H1142.8V230.818H1139.15V231.74Z" fill="#BAC7C6"/>
<path d="M1149.95 239.598H1153.6V231.741H1149.95V239.598Z" fill="#98ABAA"/>
<path d="M1149.95 231.74H1153.6V230.818H1149.95V231.74Z" fill="#98ABAA"/>
<path d="M1161.38 239.598H1165.03V231.741H1161.38V239.598Z" fill="#98ABAA"/>
<path d="M1161.38 231.74H1165.03V230.818H1161.38V231.74Z" fill="#98ABAA"/>
<path d="M1127.72 255.339H1131.36V246.561H1127.72V255.339Z" fill="#BAC7C6"/>
<path d="M1139.15 255.339H1142.8V246.561H1139.15V255.339Z" fill="#BAC7C6"/>
<path d="M1149.95 255.339H1153.6V246.561H1149.95V255.339Z" fill="#98ABAA"/>
<path d="M1161.38 255.339H1165.03V246.561H1161.38V255.339Z" fill="#98ABAA"/>
<path d="M1127.72 272.092H1131.36V263.315H1127.72V272.092Z" fill="#BAC7C6"/>
<path d="M1139.15 272.092H1142.8V263.315H1139.15V272.092Z" fill="#BAC7C6"/>
<path d="M1149.95 272.092H1153.6V263.315H1149.95V272.092Z" fill="#98ABAA"/>
<path d="M1161.38 272.092H1165.03V263.315H1161.38V272.092Z" fill="#98ABAA"/>
<path d="M1173.88 239.598H1177.53V231.741H1173.88V239.598Z" fill="#98ABAA"/>
<path d="M1173.88 231.74H1177.53V230.818H1173.88V231.74Z" fill="#98ABAA"/>
<path d="M1173.88 255.339H1177.53V246.561H1173.88V255.339Z" fill="#98ABAA"/>
<path d="M1185.31 239.598H1188.96V231.741H1185.31V239.598Z" fill="#98ABAA"/>
<path d="M1185.31 231.74H1188.96V230.818H1185.31V231.74Z" fill="#98ABAA"/>
<path d="M842.89 218.456H846.81V204.77H842.89V218.456Z" fill="#98ABAA"/>
<path d="M862.385 218.456H866.304V204.77H862.385V218.456Z" fill="#98ABAA"/>
<path d="M881.881 218.456H885.799V204.77H881.881V218.456Z" fill="#98ABAA"/>
<path d="M903.335 218.456H905.294V204.77H903.335V218.456Z" fill="#98ABAA"/>
<path d="M901.375 218.456H903.335V204.77H901.375V218.456Z" fill="#98ABAA"/>
<path d="M842.89 246.622H846.81V232.936H842.89V246.622Z" fill="#98ABAA"/>
<path d="M862.385 246.622H866.304V232.936H862.385V246.622Z" fill="#98ABAA"/>
<path d="M881.881 246.622H885.799V232.936H881.881V246.622Z" fill="#98ABAA"/>
<path d="M903.335 246.622H905.294V232.936H903.335V246.622Z" fill="#98ABAA"/>
<path d="M901.375 246.622H903.335V232.936H901.375V246.622Z" fill="#98ABAA"/>
<path d="M842.89 275.489H846.81V261.803H842.89V275.489Z" fill="#98ABAA"/>
<path d="M862.385 275.489H866.304V261.803H862.385V275.489Z" fill="#98ABAA"/>
<path d="M881.881 275.489H885.799V261.803H881.881V275.489Z" fill="#98ABAA"/>
<path d="M903.335 275.489H905.294V261.803H903.335V275.489Z" fill="#98ABAA"/>
<path d="M901.375 275.489H903.335V261.803H901.375V275.489Z" fill="#98ABAA"/>
<path d="M842.89 304.356H846.81V303.825H842.89V304.356Z" fill="#98ABAA"/>
<path d="M842.89 303.825H846.81V290.671H842.89V303.825Z" fill="#98ABAA"/>
<path d="M862.385 304.356H866.304V303.825H862.385V304.356Z" fill="#98ABAA"/>
<path d="M862.385 303.825H866.304V290.671H862.385V303.825Z" fill="#98ABAA"/>
<path d="M885.799 304.356H881.881V303.825H885.799V290.67V304.356Z" fill="#98ABAA"/>
<path d="M881.881 303.825H885.799V290.671H881.881V303.825Z" fill="#98ABAA"/>
<path d="M905.295 304.356H901.375V303.825H903.335V290.67H905.295V304.356Z" fill="#98ABAA"/>
<path d="M901.375 303.825H903.335V290.671H901.375V303.825Z" fill="#98ABAA"/>
<path d="M842.89 330.578H846.81V316.894H842.89V330.578Z" fill="#98ABAA"/>
<path d="M862.385 330.578H866.304V316.894H862.385V330.578Z" fill="#98ABAA"/>
<path d="M881.881 330.578H885.799V316.894H881.881V330.578Z" fill="#98ABAA"/>
<path d="M842.89 359.825H846.81V359.67H842.89V359.825Z" fill="#98ABAA"/>
<path d="M842.89 359.673H846.81V346.14H842.89V359.673Z" fill="#98ABAA"/>
<path d="M862.385 359.825H866.304V359.67H862.385V359.825Z" fill="#98ABAA"/>
<path d="M862.385 359.673H866.304V346.14H862.385V359.673Z" fill="#98ABAA"/>
<path d="M885.799 359.825H881.881V359.673H885.799V346.14V359.825Z" fill="#98ABAA"/>
<path d="M881.881 359.673H885.799V346.14H881.881V359.673Z" fill="#98ABAA"/>
<path d="M903.335 330.578H905.294V316.894H903.335V330.578Z" fill="#98ABAA"/>
<path d="M901.375 330.578H903.335V316.894H901.375V330.578Z" fill="#98ABAA"/>
<path d="M1286.04 284.976H1290.05V277.121H1286.04V284.976Z" fill="#98ABAA"/>
<path d="M1286.04 297.66H1290.05V289.805H1286.04V297.66Z" fill="#98ABAA"/>
<path d="M1296.32 284.976H1300.32V277.121H1296.32V284.976Z" fill="#98ABAA"/>
</g>
</svg>
